<?xml version="1.0" encoding="utf-8"?>
<!-- Generator: Adobe Illustrator 24.3.0, SVG Export Plug-In . SVG Version: 6.00 Build 0)  -->
<svg version="1.1" xmlns="http://www.w3.org/2000/svg" xmlns:xlink="http://www.w3.org/1999/xlink" x="0px" y="0px"
	 viewBox="0 0 391.81 371.25" style="enable-background:new 0 0 391.81 371.25;" xml:space="preserve">
<style type="text/css">
	.st0{fill:#132CAD;}
	.st1{opacity:0.2;fill:#FFFFFF;}
	.st2{opacity:0.44;fill:#FFFFFF;}
	.st3{opacity:0.3;fill:#FFFFFF;}
	.st4{fill:#FFFFFF;}
	.st5{fill:#193081;}
	.st6{clip-path:url(#SVGID_2_);}
	.st7{fill:#FFC500;}
	.st8{clip-path:url(#SVGID_6_);}
	.st9{clip-path:url(#SVGID_10_);}
	.st10{fill:#A72112;}
	.st11{clip-path:url(#SVGID_16_);}
	.st12{clip-path:url(#SVGID_20_);}
	.st13{clip-path:url(#SVGID_24_);}
	.st14{fill:#EAE1F0;}
	.st15{clip-path:url(#SVGID_28_);}
	.st16{fill:#D9CDC8;}
	.st17{clip-path:url(#SVGID_32_);}
	.st18{clip-path:url(#SVGID_40_);}
	.st19{clip-path:url(#SVGID_44_);}
	.st20{fill:#C81A00;}
	.st21{clip-path:url(#SVGID_58_);}
	.st22{fill:#BE996D;}
	.st23{fill:#389655;}
	.st24{fill:#1B60AC;}
	.st25{fill:#F9F9FA;}
	.st26{fill:#0C2A8B;}
	.st27{opacity:0.3;}
	.st28{clip-path:url(#SVGID_62_);}
	.st29{clip-path:url(#SVGID_66_);}
	.st30{fill:#E1D7C1;}
	.st31{fill:none;}
	.st32{clip-path:url(#SVGID_70_);}
	.st33{fill:#103C9D;}
</style>
<g id="DSC_x5F_5908_xA0_Immagine_1_">
	<g>
		<path class="st5" d="M259.16,190.1c-0.56,0.31-0.97,0.53-1.38,0.76c-0.02-0.06-0.08-0.17-0.06-0.19c0.32-0.28,0.64-0.55,0.98-0.81
			C258.74,189.83,258.88,189.95,259.16,190.1z"/>
	</g>
	<path class="st3" d="M157.69,169.01c1.89,0.11,4.81,0.78,7.05,0.4c6.17-1.14,12.48,0.32,18.59-1.13
		c3.55-0.75,12.39,4.43,12.25-2.28c-1.22-5.46,1.85-10.66,2.42-16.05c2.29-7.92,3.93-15.97,5.36-24.08
		c0.76-7.21,4.21-13.5,6.85-20.09c1.74-5.81,2.14-12.18,5.23-17.51c4.4-1.7,3.68,6.67,4.31,9.21c0.48,4.59,0.58,9.2,1.68,13.71
		c2.45,14.05,5.8,27.91,8.49,41.92c0.36,1.85,1.03,3.51,1.6,5.3c0.58,1.82,1.35,3.62,2.65,5.04c0.83,0.9,1.66,0.61,2.64,1.06
		c0.96,0.45,1.7,1.31,2.59,1.87c1.12,0.71,1.79,0.57,3,0.63c9.24,0.42,18.59-0.32,27.82,0.42c6.66,1.55,13.75-0.23,20.29,1.89
		c4.5,1.47,0.1,5.79-2.72,6.02c-10.98,3.18-21.94,6.58-32.21,11.66c-7.67,2.45-14.44,7.03-22.21,9.25c-2,0.35-2.97,1.28-3.22,3.33
		c-0.36,3.18-0.44,6.4-1.04,9.55c-1.97,9.96-3.67,19.98-5.1,30.03c-0.48,2.94-0.52,5.91-0.65,8.88c-0.49,4.07-2.17,7.95-2.83,12
		c-0.82,6.69-2.32,13.24-3.19,19.94c-0.62,2.28-0.18,9.38-2.47,9.65c-1.7,0.47-2-2.64-2.58-3.73c-2.12-7.36-2.83-14.99-4.89-22.36
		c-3.38-13.92-5.9-28.01-8.64-42.05c-1.63-4.58,0.33-12.47-4.31-15.05c-3-1.27-5.25-3.78-8.45-4.51c-4.62-1.1-8.74-3.56-13.39-4.62
		c-4.15-0.66-7.18-3.76-11.16-4.76c-8.55-3.84-17.34-7.07-26.29-9.92c-6.97-2.08-14.13-3.44-20.97-6.04
		c-1.19-0.58-1.83-2.08-0.35-2.98c2.45-1.67,5.73-1.02,8.54-1.63C134.3,170.45,145.62,169.46,157.69,169.01z"/>
	<path class="st4" d="M214.07,283.58c-1.07-0.39-1.7-4.4-2.09-6.84c-0.26-1.64-0.48-3.06-0.79-3.87c-0.55-3.97-1.54-7.9-2.49-11.7
		c-0.94-3.74-1.91-7.61-2.46-11.5l0-0.03c-0.3-1.46-0.61-2.92-0.92-4.38c-2.34-11.13-4.76-22.63-5.53-33.89
		c-0.36-5.94-4.99-8.39-9.46-10.76c-0.58-0.31-1.18-0.63-1.77-0.95c-1.16-0.86-2.48-1-3.76-1.13c-1.26-0.13-2.45-0.26-3.47-1.05
		l-0.04-0.03l-0.04-0.02c-2.54-1.24-5.37-1.83-8.1-2.4c-0.51-0.11-1.02-0.21-1.53-0.32c-1.58-0.64-3.11-1.43-4.59-2.2
		c-2.25-1.17-4.58-2.38-7.18-3.08c-7.61-3.87-17.83-6.91-26.06-9.34c-4-1.19-7.46-2.21-9.92-3.12c-3.54-1.31-3.57-1.89-3.57-1.96
		c0,0,0.06-0.33,1.43-0.75c1.13-0.34,2.91-0.67,5.27-0.96c4.91-0.61,12.69-1.14,23.78-1.61c4.19-0.07,8.71-0.14,13.28-0.14
		c6.89,0,12.63,0.15,18.09,0.49l0.08,0l0.08-0.02c0.63-0.19,1.43-0.28,2.44-0.28c1.11,0,2.31,0.1,3.58,0.21
		c1.27,0.11,2.58,0.22,3.8,0.22c1.56,0,3.79-0.16,5.09-1.58c0.89-0.98,1.24-2.37,1.07-4.28c-0.52-7.83,1.47-15.66,3.4-23.23
		c1.3-5.1,2.64-10.37,3.22-15.63c0.86-5.66,2.87-11.52,5.98-17.39l0.01-0.02l0.01-0.02c1.1-2.56,1.62-5.3,2.13-7.96
		c0.55-2.88,1.11-5.85,2.42-8.54c0.35-0.33,0.66-0.51,0.89-0.51c0.22,0,0.79,0.25,1.21,2.58c0.3,1.7,0.43,3.91,0.54,5.86
		c0.12,2.16,0.22,3.89,0.52,4.66c0.39,5.64,1.59,11.24,2.76,16.65c0.84,3.9,1.71,7.92,2.26,11.91l0,0.03l0.01,0.03
		c1.27,4.91,2.33,9.95,3.35,14.83c1.15,5.46,2.33,11.1,3.82,16.59l0.01,0.05l0.02,0.04c1.75,3.33,6.43,3.75,10.31,3.75
		c1.82,0,3.68-0.11,5.48-0.21c1.62-0.09,3.15-0.18,4.5-0.18c0.82,0,1.5,0.03,2.08,0.1l0.02,0l0.02,0c2.2,0.04,4.44,0.06,6.61,0.07
		c9.03,0.08,18.36,0.16,27.29,1.39c0.35,0.2,0.85,0.56,0.81,0.89c-0.04,0.29-0.5,1.08-3.97,2.27c-2.35,0.81-5.25,1.52-7.81,2.16
		c-2.85,0.71-4.53,1.13-5.18,1.5c-6.75,2.16-13.25,5.23-19.54,8.2c-6.46,3.05-13.13,6.21-20.06,8.36l-0.03,0.01l-0.02,0.01
		c-3.56,1.58-3.64,5.62-3.71,9.19c-0.03,1.59-0.06,3.09-0.36,4.34l-0.5,2.6c-2.04,10.5-4.15,21.36-5.27,32.12l0,0.02l0,0.02
		c-0.07,4.6-1.17,9.2-2.22,13.64c-0.86,3.61-1.75,7.34-2.11,11.12c-0.82,2.22-0.93,4.72-1.03,7.14
		C216.02,278.09,215.88,281.22,214.07,283.58z"/>
</g>
</svg>
