<?xml version="1.0" encoding="utf-8"?>
<!-- Generator: Adobe Illustrator 24.3.0, SVG Export Plug-In . SVG Version: 6.00 Build 0)  -->
<svg version="1.1" xmlns="http://www.w3.org/2000/svg" xmlns:xlink="http://www.w3.org/1999/xlink" x="0px" y="0px"
	 viewBox="0 0 391.81 371.25" style="enable-background:new 0 0 391.81 371.25;" xml:space="preserve">
<style type="text/css">
	.st0{fill:#132CAD;}
	.st1{opacity:0.2;fill:#FFFFFF;}
	.st2{opacity:0.44;fill:#FFFFFF;}
	.st3{opacity:0.3;fill:#FFFFFF;}
	.st4{fill:#FFFFFF;}
	.st5{fill:#193081;}
	.st6{clip-path:url(#SVGID_2_);}
	.st7{fill:#FFC500;}
	.st8{clip-path:url(#SVGID_6_);}
	.st9{clip-path:url(#SVGID_10_);}
	.st10{fill:#A72112;}
	.st11{clip-path:url(#SVGID_16_);}
	.st12{clip-path:url(#SVGID_20_);}
	.st13{clip-path:url(#SVGID_24_);}
	.st14{fill:#EAE1F0;}
	.st15{clip-path:url(#SVGID_28_);}
	.st16{fill:#D9CDC8;}
	.st17{clip-path:url(#SVGID_32_);}
	.st18{clip-path:url(#SVGID_40_);}
	.st19{clip-path:url(#SVGID_44_);}
	.st20{fill:#C81A00;}
	.st21{clip-path:url(#SVGID_58_);}
	.st22{fill:#BE996D;}
	.st23{fill:#389655;}
	.st24{fill:#1B60AC;}
	.st25{fill:#F9F9FA;}
	.st26{fill:#0C2A8B;}
	.st27{opacity:0.3;}
	.st28{clip-path:url(#SVGID_62_);}
	.st29{clip-path:url(#SVGID_66_);}
	.st30{fill:#E1D7C1;}
	.st31{fill:none;}
	.st32{clip-path:url(#SVGID_70_);}
	.st33{fill:#103C9D;}
</style>
<g id="DSC_x5F_5908_xA0_Immagine_1_">
	<path class="st3" d="M197.36,166.61c0-1.87,0.01-3.74-0.01-5.6c-0.01-0.81-0.16-1.62-0.12-2.43c0.1-2.19,0.27-4.38,0.39-6.57
		c0.04-0.71-0.03-1.42-0.02-2.13c0.01-1.33,0.05-2.66,0.07-4c0.03-1.36,0.04-2.72,0.08-4.08c0.03-1.03,0.14-2.05,0.17-3.08
		c0.11-3.51,0.2-7.02,0.3-10.54c0.04-1.5,0.05-3.01,0.15-4.51c0.15-2.36,0.36-4.71,0.53-7.07c0.11-1.55,0.22-3.1,0.32-4.64
		c0.1-1.52,0.2-3.05,0.27-4.57c0.07-1.42,0.07-2.85,0.17-4.27c0.12-1.76,0.36-3.51,0.48-5.27c0.1-1.57,0.1-3.14,0.14-4.71
		c0.03-1.22,0.05-2.43,0.1-3.65c0.08-1.9,0.51-3.73,1.11-5.52c0.3-0.9,1-1.31,1.74-1.71c0.48-0.26,0.76,0.12,1.02,0.43
		c1.09,1.3,1.92,2.74,2.42,4.36c0.61,1.99,1.18,3.99,1.81,5.97c0.82,2.57,1.69,5.13,2.53,7.7c0.36,1.11,0.65,2.25,1.04,3.36
		c0.47,1.32,1.06,2.61,1.52,3.93c0.62,1.81,1.12,3.66,1.75,5.47c1.33,3.81,2.25,7.78,4.19,11.34c1.51,2.77,2.59,5.7,3.64,8.64
		c0.71,2,1.04,4.13,1.67,6.16c0.63,2.02,1.42,4,2.16,5.99c0.12,0.31,0.33,0.59,0.43,0.91c0.82,2.42,1.59,4.86,2.46,7.27
		c0.81,2.26,1.71,4.5,2.6,6.73c0.85,2.13,1.76,4.23,2.61,6.36c0.87,2.2,2.46,3.52,4.74,4.07c1.42,0.34,2.82,0.75,4.26,0.98
		c2.09,0.33,4.2,0.59,6.31,0.75c3.36,0.25,6.72,0.4,10.08,0.57c2.39,0.12,4.77,0.27,7.16,0.27c1.2,0,2.41-0.3,3.62-0.44
		c1.23-0.15,2.46-0.34,3.7-0.38c4.71-0.13,9.42-0.21,14.13-0.31c1.98-0.04,3.97-0.12,5.95-0.13c1.41,0,2.82,0.11,4.23,0.12
		c1,0.01,2.01-0.2,3-0.1c1.63,0.15,3.26,0.43,4.87,0.73c0.83,0.16,1.21,1.42,0.77,2.25c-0.34,0.64-0.85,1.04-1.49,1.42
		c-3.7,2.21-7.78,3.53-11.69,5.26c-1.9,0.84-3.75,1.8-5.67,2.59c-4.55,1.88-9.18,3.53-13.97,4.76c-2.26,0.58-4.42,1.54-6.66,2.24
		c-1.55,0.48-3.14,0.83-4.71,1.22c-2.13,0.53-4.29,0.99-6.4,1.58c-3.44,0.96-6.85,2.05-10.29,3.01c-2.23,0.62-4.49,1.12-6.74,1.67
		c-1.87,0.46-3.7,1.01-5.09,2.45c-0.9,0.93-1.29,2.11-1.63,3.3c-0.98,3.5-1.95,6.99-2.83,10.51c-0.4,1.61-0.58,3.28-0.86,4.92
		c-0.29,1.74-0.6,3.47-0.89,5.21c-0.32,1.91-0.58,3.83-0.95,5.72c-0.43,2.18-0.87,4.36-1.45,6.5c-1.05,3.87-2.18,7.73-3.31,11.58
		c-0.85,2.91-1.73,5.82-2.66,8.7c-0.62,1.93-1.43,3.8-2.04,5.73c-0.6,1.89-1.01,3.84-1.58,5.74c-0.38,1.28-0.89,2.52-1.34,3.78
		c-0.76,2.13-1.5,4.27-2.28,6.4c-1.21,3.27-2.38,6.55-3.71,9.78c-0.58,1.42-1.42,2.75-2.31,4c-0.32,0.45-1.15,0.58-1.78,0.73
		c-0.18,0.05-0.52-0.28-0.7-0.51c-0.97-1.23-1.01-2.73-1.18-4.2c-0.24-2.08-0.59-4.15-0.89-6.22c-0.18-1.25-0.41-2.5-0.51-3.76
		c-0.15-2.02-0.24-4.05-0.31-6.08c-0.04-1.17,0.06-2.34-0.03-3.5c-0.17-2.24-0.4-4.47-0.64-6.7c-0.25-2.35-0.51-4.7-0.8-7.04
		c-0.22-1.8-0.53-3.59-0.75-5.39c-0.16-1.28-0.3-2.56-0.37-3.85c-0.09-1.67-0.13-3.34-0.16-5.02c-0.06-3.66-0.1-7.32-0.15-10.98
		c-0.05-3.83-0.05-7.66-0.15-11.48c-0.09-3.71-1.13-7.15-3.32-10.19c-0.92-1.27-2.26-2.02-3.65-2.7c-1.94-0.96-3.99-1.53-6.08-2.06
		c-1.82-0.46-3.55-1.26-5.36-1.78c-1.64-0.47-3.34-0.76-5.01-1.15c-1.11-0.26-2.21-0.56-3.31-0.88c-0.92-0.27-1.83-0.56-2.73-0.88
		c-2.31-0.84-4.68-1.56-6.9-2.6c-1.87-0.88-3.84-1.24-5.79-1.81c-2.66-0.77-5.25-1.78-7.89-2.61c-2.24-0.71-4.37-1.66-6.46-2.7
		c-3.47-1.72-6.95-3.4-10.44-5.07c-2.13-1.02-4.31-1.95-6.43-3c-1.91-0.94-3.78-1.96-5.64-2.98c-0.85-0.47-1.67-0.98-2.47-1.54
		c-0.9-0.63-0.96-1.64-0.86-2.58c0.11-1.01,0.63-1.87,1.76-1.98c1.32-0.13,2.66-0.23,3.99-0.19c1.67,0.05,3.33,0.32,4.99,0.36
		c1.8,0.04,3.62-0.17,5.42-0.1c2.45,0.09,4.9,0.34,7.35,0.52c1.55,0.11,3.09,0.28,4.64,0.3c2.51,0.04,5,0.22,7.48,0.66
		c1.55,0.28,3.13,0.32,4.7,0.5c1.09,0.13,2.17,0.34,3.26,0.46c1.42,0.16,2.85,0.31,4.27,0.39c3.22,0.18,6.44,0.24,9.66,0.47
		c2.47,0.18,4.93,0.59,7.4,0.79c1.21,0.1,2.43-0.07,3.65-0.05c1.57,0.02,3.15,0.12,4.72,0.16c1.52,0.04,3.07,0.24,4.56,0.05
		c1.28-0.16,2.34-0.97,2.61-2.4c0.16-0.87,0.29-1.75,0.31-2.62C197.39,170.25,197.36,168.43,197.36,166.61z"/>
	<path class="st4" d="M303.72,175.08c-1.01-2.45-4.83-1.34-6.92-1.47c-5.05-0.23-10.1,0.01-15.16,0.16
		c-2.92,0.19-5.84,0.44-8.76,0.37c-1.36,0.15-2.71,0.51-4.07,0.57c-5.81,0.24-11.63-0.13-17.44-0.39c-2.07-0.07-4.12-0.39-6.16-0.69
		c-3.24-0.29-6.45-1.17-9.4-2.5c-2.25-2.07-3.08-5.12-4.16-7.87c-0.84-2.07-1.8-4.1-2.56-6.19c-1.9-5.74-4.11-11.36-5.78-17.18
		c-0.59-2.75-1.37-5.46-2.54-8.05c-1.3-3.73-3.61-7-4.62-10.87c-3.1-9.59-6.45-19.13-9.27-28.82c-0.5-2.06-2.86-6.47-3.42-5.4
		c-2.14,2.52-1.69,5.63-1.9,8.69c-0.21,8.23-0.63,16.45-1.35,24.65c-0.96,10.06-0.61,20.18-1.08,30.27
		c-0.5,7.83,0.06,15.68-0.33,23.51c-0.41,2.87-0.82,5.25-4.31,5.04c-5.97-0.32-11.96-0.02-17.9-0.72
		c-7.43-1.16-14.99-0.94-22.41-2.15c-3.97-0.85-8-0.7-12.03-0.9c-2.41-0.19-4.82-0.47-7.23-0.53c-2.47-0.04-4.94,0.23-7.4,0.06
		c-1.55-0.1-3.1-0.24-4.66-0.37c-0.84-0.07-1.41,0.39-1.91,0.98c-0.1,0.12-0.18,0.4-0.12,0.49c1.14,2.27,3.63,2.87,5.71,3.98
		c3.28,1.61,6.56,3.21,9.84,4.81c4.77,2.22,9.38,4.87,14.41,6.47c3.34,1.23,6.67,2.46,10.16,3.15c4.96,1.94,9.95,3.84,15.1,5.24
		c3.89,0.94,7.83,1.69,11.62,3c3.78,1,8.57,2.47,10.31,6.3c0.23,0.66,0.37,1.35,0.65,1.98c2.08,4.48,1.57,9.46,1.61,14.25
		c0.05,4.6,0.13,8.74,0.56,13.52c-0.03,3.25-0.1,7.14,0.39,10.53c0.36,3.01,0.41,6.11,0.95,9.08c0.62,2.62,0.81,5.29,1.01,7.95
		c0.19,2.69,0.06,5.41,0.21,8.11c0.13,4.15,1.52,8.14,1.53,12.3c0.02,0.78,0.21,1.57,0.38,2.34c0.05,0.21,0.27,0.48,0.46,0.53
		c0.53,0.14,1.64-0.5,1.93-1c2.72-5.26,4.35-10.98,6.4-16.52c1.2-3.45,2.38-6.92,3.3-10.45c2.35-6.45,4.54-12.96,6.41-19.56
		c2.37-7.53,3.63-15.31,4.76-23.11c0.5-5.58,2.59-10.85,3.79-16.3c0.55-2.73,3.03-4.45,5.6-5.12c3.99-0.92,7.94-1.98,11.84-3.22
		c12.44-2.85,24.81-6.08,36.59-11.05c4.36-1.75,8.76-3.4,13.06-5.31c1.36-0.62,2.73-1.23,4.06-1.9
		C303.65,175.72,303.8,175.26,303.72,175.08z"/>
</g>
</svg>
