<?xml version="1.0" encoding="utf-8"?>
<!-- Generator: Adobe Illustrator 24.3.0, SVG Export Plug-In . SVG Version: 6.00 Build 0)  -->
<svg version="1.1" xmlns="http://www.w3.org/2000/svg" xmlns:xlink="http://www.w3.org/1999/xlink" x="0px" y="0px"
	 viewBox="0 0 391.81 371.25" style="enable-background:new 0 0 391.81 371.25;" xml:space="preserve">
<style type="text/css">
	.st0{fill:#132CAD;}
	.st1{opacity:0.2;fill:#FFFFFF;}
	.st2{opacity:0.44;fill:#FFFFFF;}
	.st3{opacity:0.3;fill:#FFFFFF;}
	.st4{fill:#FFFFFF;}
	.st5{fill:#193081;}
	.st6{clip-path:url(#SVGID_2_);}
	.st7{fill:#FFC500;}
	.st8{clip-path:url(#SVGID_6_);}
	.st9{clip-path:url(#SVGID_10_);}
	.st10{fill:#A72112;}
	.st11{clip-path:url(#SVGID_16_);}
	.st12{clip-path:url(#SVGID_20_);}
	.st13{clip-path:url(#SVGID_24_);}
	.st14{fill:#EAE1F0;}
	.st15{clip-path:url(#SVGID_28_);}
	.st16{fill:#D9CDC8;}
	.st17{clip-path:url(#SVGID_32_);}
	.st18{clip-path:url(#SVGID_40_);}
	.st19{clip-path:url(#SVGID_44_);}
	.st20{fill:#C81A00;}
	.st21{clip-path:url(#SVGID_58_);}
	.st22{fill:#BE996D;}
	.st23{fill:#389655;}
	.st24{fill:#1B60AC;}
	.st25{fill:#F9F9FA;}
	.st26{fill:#0C2A8B;}
	.st27{opacity:0.3;}
	.st28{clip-path:url(#SVGID_62_);}
	.st29{clip-path:url(#SVGID_66_);}
	.st30{fill:#E1D7C1;}
	.st31{fill:none;}
	.st32{clip-path:url(#SVGID_70_);}
	.st33{fill:#103C9D;}
</style>
<g id="DSC_x5F_5908_xA0_Immagine_1_">
	<g>
		<g>
			<path class="st3" d="M130.87,215.84c-0.09-1.42-0.08-2.39-0.22-3.33c-0.27-1.7-1.04-2.36-2.76-2.4
				c-1.16-0.02-2.32,0.03-3.48,0.09c-2.92,0.17-5.84,0.36-8.76,0.54c-2.82,0.17-5.64,0.33-8.47,0.51
				c-3.63,0.22-7.26,0.45-10.88,0.68c-2.62,0.16-5.24,0.36-7.86,0.49c-2.11,0.1-4.23,0.12-6.34,0.16c-1.87,0.04-3.77-0.15-5.59,0.15
				c-3.89,0.64-7.77,1.27-11.72,1.4c-1.61,0.06-3.23,0.22-4.82,0.5c-3.78,0.66-7.54,1.43-11.31,2.13c-1.95,0.36-2.81,1.23-2.91,3.25
				c-0.06,1.11,0.02,2.22,0,3.33c-0.07,3.78-0.17,7.57-0.24,11.35c-0.02,1.31-0.08,2.64,0.09,3.93c0.21,1.63,0.99,2.24,2.63,2.4
				c0.6,0.06,1.2,0.14,1.81,0.18c2.62,0.13,5.27,0.55,7.86,0.31c3.91-0.36,7.77,0.23,11.65,0.13c1-0.03,2.01,0.12,3.01,0.04
				c3.83-0.29,7.64-0.72,11.47-0.93c4.18-0.22,8.38-0.23,12.57-0.35c2.37-0.07,4.74-0.14,7.11-0.26c5.64-0.3,11.29-0.63,16.93-0.97
				c1.91-0.11,3.83-0.2,5.74-0.4c2.94-0.3,4.05-1.45,4.09-4.39c0.02-1.76-0.26-3.52-0.38-5.28c-0.05-0.75-0.13-1.51-0.08-2.26
				C130.27,223.03,130.6,219.21,130.87,215.84z"/>
			<path class="st7" d="M51.64,218.91c-0.11,0.02-0.21,0.04-0.3,0.05C51.43,218.94,51.53,218.93,51.64,218.91z"/>
			<path class="st4" d="M127.17,210.79c-0.4,0.01-0.8,0.07-1.21,0.1c-2.56,0.19-5.12,0.43-7.69,0.57c-2.67,0.15-5.34,0.16-8.01,0.31
				c-4.83,0.26-9.66,0.58-14.49,0.88c-1.76,0.11-3.52,0.27-5.28,0.39c-2.67,0.17-5.35,0.57-8,0.43c-5.32-0.28-10.47,0.96-15.69,1.53
				c-0.88,0-1.76-0.01-2.65,0.01c-3.85,0.11-7.65,0.88-11.43,1.64c-1.55,0.31-3.15,0.64-4.55,1.42c-1.62,0.9-1.75,1.82-1.79,3.6
				c-0.09,4.49-0.18,8.98-0.26,13.47c-0.02,0.81-0.06,1.62-0.03,2.42c0.07,1.99,0.73,2.59,2.71,2.6c1.56,0.01,3.13,0.04,4.69,0.07
				c2.22,0.05,4.43,0.12,6.65,0.15c0.6,0.01,1.21-0.13,1.81-0.1c4.74,0.22,9.48,0.51,14.21-0.09c1-0.13,2.01-0.24,3.02-0.27
				c6.86-0.22,13.72-0.41,20.58-0.62c0.81-0.02,1.61-0.09,2.42-0.14c3.72-0.25,7.45-0.21,11.17-0.66c3.3-0.4,6.65-0.34,9.97-0.5
				c1.26-0.06,2.52-0.16,3.77-0.27c1.34-0.12,2.12-0.74,2.44-1.9c0.77-2.77-0.05-5.82-0.24-8.66c-0.08-1.14-0.13-2.28-0.16-3.43
				c0.07-0.14,0.12-0.3,0.14-0.48c0.08-0.64,0.11-1.28,0.15-1.93c0.09-1.28,0.17-2.57,0.25-3.85c0.06-0.89,0.12-1.77,0.18-2.66
				c0.02-0.22,0.04-0.44,0.06-0.66c-0.06-0.1-0.11-0.19-0.17-0.29c0.06,0.1,0.12,0.19,0.17,0.29
				C130.28,211.86,129.35,210.73,127.17,210.79z"/>
			<path class="st22" d="M101.82,214.94c-0.23,0.02-0.47,0.05-0.7,0.07C101.35,214.99,101.59,214.96,101.82,214.94z"/>
			<path class="st23" d="M107.43,215.73c2.16-0.4,4.32-0.8,6.48-1.2c1.46-0.27,2.96-0.42,4.38-0.82c3.03-0.86,7.46-1.2,8.42,1.31
				c0.51,1.33,0.37,2.83,0.45,4.25c0.14,2.58,0.3,5.17,0.24,7.76c-0.03,1.52-0.32,3.07-0.76,4.53c-0.45,1.48-1.69,2.05-3.24,2.04
				c-2.42-0.01-4.85,0.02-7.27,0.12c-1.71,0.07-2.6,0.18-4.28,0.48c-1.85,0.33-3.38-0.04-4.66-1.41c-0.04-1.37-0.15-2.74-0.11-4.1
				c0.06-1.86-0.21-3.72-0.22-5.58c-0.02-2.44-0.19-4.84,0.43-7.2C107.36,215.86,107.41,215.8,107.43,215.73z"/>
			<g>
				<path class="st7" d="M87.97,217.61c0.01,5.55,0.01,11.1,0.02,16.65c-1.29,0.68-2.56,1.39-3.86,2.04
					c-0.62,0.31-1.28,0.67-1.94,0.7c-3.63,0.16-7.26,0.2-10.89,0.32c-1.46,0.05-2.26-0.95-3.17-1.81c0.01-0.4,0.03-0.8,0.01-1.2
					c-0.1-2.36-0.21-4.72-0.32-7.08c-0.03-0.65-0.07-1.31-0.09-1.96c-0.03-1.25,0.01-2.51-0.07-3.76c-0.07-1.09-0.25-2.17-0.38-3.26
					c4.73-0.74,9.46-1.59,14.27-1.47c1.44,0.03,2.88,0.43,4.32,0.63C86.57,217.52,87.27,217.55,87.97,217.61z"/>
				<path class="st23" d="M67.82,236.31c-0.6,1.19-1.79,1.4-2.88,1.47c-2.62,0.17-5.26,0.16-7.89,0.23
					c-0.96,0.02-1.93,0.03-2.89,0.07c-0.48,0.02-0.96,0.12-1.44,0.14c-1.93,0.07-2.66-0.53-2.92-2.42
					c-0.14-1.01-0.32-2.03-0.35-3.04c-0.11-3.97-0.48-7.94,0.11-11.9c0.12-0.06,0.32-0.11,0.36-0.21c0.43-1.22,1.36-1.74,2.57-1.88
					c0.74-0.08,1.49-0.15,2.24-0.2c1.6-0.11,3.21-0.19,4.81-0.29c1.5-0.1,3-0.31,4.49-0.28c2.79,0.05,3.34,0.71,3.36,3.49
					c0.04,4.82,0.11,9.64,0.17,14.46C67.55,236.07,67.72,236.19,67.82,236.31z"/>
				<path class="st20" d="M97.29,235.27c-1.83,0.12-3.67,0.25-5.51,0.34c-0.58,0.03-1.19-0.02-1.76-0.14
					c-1.54-0.33-1.85-0.75-1.85-2.33c0.01-4.33,0.01-8.66,0.02-12.99c0-0.47,0.01-0.95,0.05-1.42c0.08-0.95,0.6-1.55,1.54-1.69
					c1.23-0.17,2.47-0.29,3.71-0.41c0.88-0.09,1.83,0.03,2.65-0.24c2.36-0.76,4.78-0.85,7.21-0.95c0.64-0.03,1.3,0.07,1.92,0.23
					c0.77,0.19,1.18,0.76,1.21,1.57c0.01,0.47,0.01,0.95,0.03,1.42c0.22,4.03,0.46,8.05,0.67,12.08c0.04,0.71,0.05,1.44-0.1,2.12
					c-0.3,1.35-1.2,2.02-2.68,2.16c-1.18,0.12-2.36,0.28-3.54,0.33c-1.19,0.06-2.38,0.01-3.56,0.01
					C97.29,235.34,97.29,235.31,97.29,235.27z"/>
			</g>
		</g>
		<path class="st3" d="M192.47,294.7c-0.15-11.49,0.12-23,0.12-34.47c-1.45-8.65-0.34-17.45-0.87-26.16
			c-0.88-7.65-0.83-15.38-1.33-23.03c1.4-7.43-2.82-7.28-8.71-6.24c-5.4,1.31-13.54-0.74-18.04,2.12
			c-2.62,4.73-0.67,11.02-1.24,16.29c-0.1,8.59,0.03,17.16,1.07,25.7c0.4,6.44-0.26,12.92,0.42,19.36
			c0.64,8.84-0.38,19.83,0.26,28.62c0.78,2.79-0.62,6.7,1.47,9.03c1.47,1.56,4.13,0.95,6.11,0.93c4.44-0.24,8.88-0.19,13.32-0.46
			C194.13,308.49,192.76,301.03,192.47,294.7z"/>
		<path class="st4" d="M191.39,265.42c-0.23-2.92,0.31-6.23-0.85-8.83c-0.16-2.24-0.04-4.46-0.05-6.7
			c1.57-8.75-0.91-18.66-0.71-27.8c-0.11-4.42-0.47-8.84-0.34-13.26c0.3-4.25-3.73-3.58-6.62-3.08
			c-15.65,3.5-20.67-4.87-19.38,12.35c0.11,15.65,1.05,31.28,1.09,46.93c0.41,6.96,0.95,14.02,0.14,20.95
			c-0.22,4.17,0.35,8.1,0.68,12.21c0.36,5.62-0.35,8.79,6.65,7.23c2.45-0.42,4.93,0.16,7.38,0.27c3.47,0.07,7.12-0.46,10.45-1.24
			c2.75-2.07,1.02-9.13,1.42-12.48c-0.24-5.32-0.09-10.59-0.05-15.92c-0.07-2.4,0.23-4.88-0.32-7.21
			C191.08,267.75,191.55,266.63,191.39,265.42z M168.5,305.05c0.21,0,0.41-0.05,0.6-0.12C168.91,305.01,168.71,305.05,168.5,305.05z
			"/>
		<path class="st23" d="M188.98,300.87c-3.24,1.9-6.95,0.58-10.42,1.66c-1.21,0.34-2.62,0.33-3.87,0.1
			c-2.04-0.37-4.03-0.3-6.05,0.02c-0.12-0.13-0.23-0.27-0.34-0.4c-0.23-0.88,0.18-2.38-0.75-2.81c-0.25-1.56,0.84-3.04-0.21-4.31
			c-0.16-1.13-0.03-2.23,0.13-3.35c0.05-1.75,0.06-3.51,0.08-5.26c0.19-0.1,0.48-0.15,0.56-0.3c1.03-2.2,4.72-1.19,6.86-1.81
			c3.58-0.6,7.18,0.51,10.77-0.3c4.56,0.05,3.25,5.88,3.43,8.92c-0.72,2.53,0.33,2.28,0.45,4.41
			C188.52,299,190.93,298.33,188.98,300.87z"/>
		<path class="st7" d="M187.54,208.78c-0.72-1.24-1.93-1.67-3.4-1.49c-5.51,0.54-11.04,1.02-16.5,2.04
			c-1.63,0.3-2.24,0.98-2.23,2.52c0.1,3.4,0.43,6.8,0.14,10.2c-0.71,6.15,1.18,3.54,1.63,6.96c1.63,0.42,3.42,0.18,4.95,0.95
			c0.6-0.07,1.2-0.14,1.79-0.2c2.44-0.19,4.77-0.81,7.17-1.28c1.28-0.37,2.75-0.47,3.82-1.28c5.62-2.95,1.56-8.88,3.34-13.59
			C188.85,211.98,188.39,210.26,187.54,208.78z"/>
		<path class="st20" d="M173.09,246.61c-1.49,0.15-2.97,0.29-4.46,0.46c-1.45,0.16-1.85-0.19-1.9-1.68
			c-0.02-4.97-0.53-10.02-0.27-14.97c0.31-1.27,0.64-1.37,1.98-1.45c1.26-0.07,2.51-0.22,3.77-0.34c0.23-0.02,0.5-0.02,0.67-0.14
			c1.65-1.15,3.54-0.88,5.37-0.89c2.37-0.01,4.74-0.02,7.11-0.01c6.34,0.59,2.83,9.83,2.94,13.92c-0.17,2.84-1.43,4.28-4.19,4.53
			C180.61,246.11,176.16,247.11,173.09,246.61z"/>
		<path class="st23" d="M166.2,254.05c0-1.15,0.04-1.85,0.67-2.81c0.41-3.73,4.3-3.93,7.27-3.56c6.21,1.69,9.03-3.91,14.45,1.37
			c1.31,2.25,0.43,8.03,0.61,10.88c0.98,6.65-3.77,6.08-8.63,5.27c-3.92-0.45-7.68,0.63-11.6,0.42c-1.62,0.06-1.96-1.65-2.68-2.78
			c-0.03-1.57-0.06-3.15-0.09-4.72C166.65,256.77,166.67,255.41,166.2,254.05z"/>
		<path class="st20" d="M189.24,273.8c-0.33,3.14,1.43,9.35-3.27,9.56c-3.99-0.17-7.95,0.41-11.92,0.66
			c-1.71,0.1-3.42,0.09-5.13,0.04c-1.01-0.03-1.46-0.56-1.56-1.59c-0.07-4.88-0.34-9.77-0.37-14.65c0-1.64,1.42-1.79,2.73-1.71
			c4.71-0.36,9.61,0.24,14.22-0.76c1.79-0.66,3.76-0.31,4.93,1.05C189.72,268.62,189.11,271.46,189.24,273.8z"/>
		<path class="st3" d="M227.87,196.5c2.25,2.78,2.2,4.34,2.11,7.76c0.41,5.42,0.32,10.87-0.06,16.28c-0.37,5.59,1.19,11,1.57,16.56
			c1.12,7.72,0.39,15.53,1.7,23.22c0.56,4.54,0.61,9.25,0.93,13.84c0.23,2.83-0.56,6.26-3.99,6.36c-4.45-0.28-23.14,3.06-23.54-2.83
			c-0.42-8.62-0.8-17.29-1.25-25.9c0.4-10.54-0.24-20.97-0.97-31.49c0.12-5.79-0.05-11.58-0.3-17.37c-0.42-4.28,3.3-5.3,6.67-5.79
			C214.45,196.42,224.84,194.75,227.87,196.5z"/>
		<path class="st4" d="M232.73,274.58c-0.64-14.31-0.43-28.75-2.79-42.91c-1.1-4.93-1.32-9.91-0.77-14.92
			c-0.37-4.18,0.83-17.9-3.16-19.19c-1.73,0.16-4.01-0.52-5.43,0.39c-2.52-0.22-4.98,0.06-7.47,0.38c-3.03,0.34-7.6,1.83-6.92,5.71
			c-0.13,6.99-0.9,14-0.53,20.98c0.7,4.35,1.12,8.7,0.82,13.11c-0.59,12.67,1.62,25.22,1.55,37.87c0.02,4.18,5.56,2.56,8.31,3.01
			c2.78-0.07,5.56-0.37,8.34-0.51C227.75,278.52,233.6,279.36,232.73,274.58z"/>
		<g>
			<path class="st7" d="M209.76,275.9c-0.04-0.28-0.08-0.56-0.11-0.83c0.13-0.38,0.36-0.75,0.37-1.13c0.04-1.46,0.02-2.92,0.01-4.39
				c0-0.37,0.04-0.84-0.15-1.11c-1.09-1.52-0.92-3.13-0.53-4.8c0.2-0.83,0.27-1.7,0.34-2.56c0.15-1.64,1.27-2.79,2.91-2.87
				c2.7-0.13,5.39-0.25,8.09-0.32c1.78-0.05,3.54-0.06,5.29-0.57c1.9-0.55,3.51,0.59,4.01,2.51c0.26,0.99,0.6,1.95,0.85,2.94
				c0.17,0.68,0.37,1.38,0.35,2.06c-0.05,2.53-0.12,5.07-0.3,7.6c-0.15,2.13-1.82,3.69-3.98,3.68c-2.17-0.01-4.11,0.81-6.14,1.33
				c-0.57,0.14-1.16,0.34-1.73,0.31c-1.34-0.08-2.67-0.29-4.01-0.42c-0.91-0.09-1.86-0.03-2.73-0.26
				C211.42,276.82,210.6,276.3,209.76,275.9z"/>
			<path class="st20" d="M226.44,209.22c-1.2-5.72,1.39-9.25-6.73-8.83c-2.42,0.12-4.55,0.22-6.31,0.58
				c-2.71,0.55-6.17,1.13-6.07,2.11c0.49,4.87-1.09,15.58,4.83,14.36c3.9-1.37,11.69,0.86,13.88-2.94
				C227.15,213.16,225.54,210.9,226.44,209.22z"/>
			<path class="st23" d="M227.1,224.89c0.16,2.15,0.33,4.31,0.47,6.46c0.04,0.62,0.07,1.24,0.03,1.86
				c-0.09,1.57-0.61,2.26-2.17,2.58c-2.11,0.43-4.24,0.83-6.38,1.05c-2.46,0.26-4.93,0.37-7.4,0.45c-1.79,0.06-2.43-0.54-2.75-2.3
				c-0.75-4.14-1.15-8.32-1.07-12.53c0.05-2.97,1.26-4.19,4.21-4.18c2.36,0.01,4.69-0.15,6.99-0.67c0.52-0.12,1.1,0.02,1.66,0.03
				c1.1,0.01,2.21,0.13,3.29-0.01c1.83-0.23,3.17,0.72,3.25,2.59c0.07,1.55,0.01,3.1,0.01,4.65
				C227.2,224.88,227.15,224.88,227.1,224.89z"/>
			<path class="st20" d="M229.44,251.32c-1.14-3.07-1-6.28-1.24-9.45c-0.05-0.72-0.15-1.45-0.31-2.16
				c-0.41-1.79-1.21-2.39-3.07-2.46c-1.56-0.07-3.13-0.25-4.69-0.31c-1.06-0.04-2.24-0.24-3.18,0.11c-2.03,0.77-4.13,0.96-6.24,1.21
				c-1.53,0.18-2.17,0.88-2.17,2.43c-0.01,1.97,0,3.94,0,5.91c0.01,0,0.03,0,0.04,0c0,2.08-0.06,4.16,0.01,6.24
				c0.11,3.07,1.48,4.09,4.37,3.7c3.88-0.53,7.78-0.86,11.66-1.34c1.1-0.13,2.22-0.36,3.25-0.75
				C229.31,253.88,229.94,252.68,229.44,251.32z"/>
		</g>
		<path class="st3" d="M331.4,193.36c-0.01,0.03-0.01,0.05-0.02,0.07c0.43-5.6-13.53-1.96-17.18-2.41
			c-22.07,0.57-44.1,2.4-66.15,2.99c-5.42,1.81-1.35,12.85-1.62,17.3c0.69,9.14,0.53,11.45,10.61,10.12
			c16.02-0.24,31.76-3.17,47.72-3.9c7.43,0.15,14.85-0.13,22.13-1.84C332.45,215.13,331.26,196.16,331.4,193.36z"/>
		<path class="st4" d="M330.69,193.84c-0.6-3.66-9.44-0.99-12.4-1.56c-12.9,0.24-25.78,0.79-38.62,1.92
			c-5.02,1.84-34.38-1.35-33.04,3.29c0,0,0,0,0,0c-0.02,0.29-0.04,0.59-0.07,0.88c0.19,0.18,0.38,0.36,0.57,0.54
			c-0.19-0.18-0.38-0.36-0.57-0.54c-1.02,3.08,0.53,6.69,0.75,9.91c0.79,3.52-0.15,7.76,1.84,10.82c2.72,2.06,6.78,0.02,9.99,0.33
			c6.47-0.17,12.93-0.44,19.33-1.44c6.6,0.04,13.02-1.29,19.56-1.83c4.39-1.52,31.98,1.53,30.14-4.62
			c0.89-5.33,1.14-10.76,2.17-16.06c0.04-0.03,0.08-0.05,0.12-0.08C330.58,194.97,330.67,193.92,330.69,193.84z M251.32,216.06
			c0.51,0.19,1.01,0.48,1.57,0.38v0C252.33,216.54,251.83,216.25,251.32,216.06z M277.36,217.1L277.36,217.1
			c-0.23,0.08-0.47,0.16-0.7,0.2C276.89,217.26,277.13,217.18,277.36,217.1z"/>
		<g>
			<path class="st24" d="M329.78,212.74c-0.19,0.23-1.74-0.15-1.72,0.14c0.11-1.34,1.18-3.69-1.12-3.35
				c-2.46,0.37-4.94,0.67-7.4,1.03c-1.1,0.16-2.07-0.3-2.44-1.36c-0.23-0.66-0.41-1.37-0.44-2.06c-0.17-3.72-0.3-7.44-0.41-11.16
				c-0.04-1.15,0.29-1.44,1.48-1.53c1.08-0.08,2.17-0.16,3.26-0.22c1.15-0.06,2.31-0.16,3.46-0.12c1.79,0.06,3.57,0.23,5.36,0.35
				c0.75,0.07,1.12-0.17,1.63-0.29c0,1.7,0.16,3.28-0.03,5.01c-0.13,1.25,0.51,2.37,0.53,3.62c0.03,1.63,0.05,3.27-0.29,4.87
				c-0.25,1.13-0.68,2.22-1.16,3.27C330.27,211.37,329.81,212.7,329.78,212.74z"/>
			<path class="st7" d="M263.4,198.15c0.03-0.31-0.18-0.21-0.01-0.47c0.48-0.74,1.79-1.48,2.43-2.05c0.69-0.61,1.36-0.87,2.27-0.89
				c2.31-0.07,3.37,0.21,5.68,0.08c1.54,0.56,1.8,0.56,2.34,0.84c1.09,0.57,2.27,0.37,3.22,1.12c0.89,0.71,2.1,1.16,3.13,0.97
				c-0.09,1.92-0.33,4.18,0.19,6.05c0.18,0.64,0.26,1.3-0.29,1.9c0.42,3.89-0.21,4.81,0.12,6.38c0.4,1.97-1.27,1.78-2.04,3.43
				c-0.44,0.94-1.45,1.38-2.58,1.32c-2.42-0.12-4.83-0.31-7.25-0.31c-1.82,0-3.59-0.18-5.32-0.75c-0.32-0.11-0.58-0.42-0.86-0.64
				c0.8-0.36,0.71-1.09,0.67-1.75c-0.22-4.49-0.43-8.97-0.71-13.46C264.34,199.18,264.21,198.61,263.4,198.15z"/>
			<path class="st20" d="M248.68,215.09c0.44-4.55-4.06-13.37,0.08-15.97c3.93-0.88,8.01-1.25,12.02-1.3
				c4.37-1.18,3.93,3.91,3.84,6.8c-0.13,3.79,2.49,8.62-1.04,11.32c-0.5,0.04-9.3,1.08-9.8,1.12
				C252.61,217.06,248.42,217.8,248.68,215.09z"/>
			<path class="st20" d="M301.73,213.19c-0.41-0.02-0.81-0.01-1.22-0.05c-2.02-0.2-2.9-1.49-2.48-3.46
				c0.36-1.68,0.47-3.36,0.19-5.11c-0.32-1.96-0.3-3.98-0.28-5.98c0.01-1.5,2.01-3.25,3.49-3.25c3.13,0.01,6.25,0.03,9.38,0.02
				c0.45,0,0.91-0.11,1.33-0.26c1.36-0.5,2.48,0.09,2.61,1.49c0.26,2.87,0.48,5.74,0.73,8.61c0.06,0.63,0.15,1.27,0.32,1.88
				c0.88,3.24-0.62,4.95-4.12,5.13c-2.13,0.11-4.26,0.24-6.38,0.48C304.11,212.82,301.75,213.27,301.73,213.19z"/>
			<path class="st23" d="M290.29,214.24c-1.41,0.16-2.82,0.31-4.22,0.47c-1.7,0.2-3-0.58-3.11-2.04c-0.32-4.25-0.64-8.5-0.83-12.75
				c-0.13-2.93,0.97-3.89,4.07-4.01c2.71-0.1,5.41-0.32,8.11-0.38c2.23-0.05,3.88,1.45,3.85,3.61c-0.03,1.8-0.4,3.58-0.54,5.38
				c-0.08,1.08-0.02,2.17,0.01,3.25c0.03,0.97,0.21,1.94,0.14,2.9c-0.14,1.94-2.05,3.44-4.61,3.67
				C292.22,214.43,290.29,214.28,290.29,214.24z"/>
		</g>
		<g>
			<path class="st3" d="M339.15,64.81c5.3-0.07,3.16,7.39,3.28,10.77c-0.56,12.27-2.14,24.48-2.4,36.78
				c-0.21,9.3-0.9,18.55-0.63,27.84c-0.27,2.73,0.35,5.46-0.16,8.16c-0.97,5.25-11.44,2.3-15.5,2.97c-0.96-0.25-2.15-0.28-2.96,0.3
				c-1.54,1.24-1.5,1.28-3.12,0.34c-0.74-0.05-0.53-1.02-0.76-1.58c-1.69-19.27-0.56-38.6-0.84-57.91
				c-0.15-6.72,0.03-13.44,0.27-20.15c0.06-1.81,0.69-3.48,1.5-5.08c0.79-1.56,2.72-1.52,4.22-1.77c4.28-0.48,8.62-0.82,12.83-1.22
				C335.78,65.65,337.81,63.98,339.15,64.81z"/>
			<g>
				<path class="st4" d="M341.26,69.6c-0.07-1.37-0.55-3.45-2.3-3.26c-2.74,0.23-5.45-0.39-8.2-0.06
					c-3.88,1.07-11.45-1.26-12.34,4.11c-0.69,9.74-0.46,19.46-1.02,29.18c-0.86,4.44,0.48,8.7,0.19,13.13
					c-0.12,3.34-0.34,6.78,0.15,10.1c0.11-0.39,0.19,4.11,0.05,6.75c-0.96,1.35-0.35,3.29-0.51,4.92c0.18,0.2,0.49,0.4,0.5,0.61
					c-0.03,1.5-0.03,4.24-0.01,5.12c0.06,1.95-0.32,9.49,2.04,9.67c4.99,0.41,9.97,0.73,14.96,0.31c2.73,0.1,3.37-2.14,3.52-4.33
					c-0.39-5-1.05-9.95-0.18-14.96c0.18-4.53,0.93-8.94,0.65-13.49c-0.29-4.48-0.52-9.12,0.2-13.56c0.59-2.3,0.74-4.6,0.79-6.94
					C340.03,87.78,341.6,78.74,341.26,69.6z M319.39,109.23c0-0.02,0-0.04,0-0.07C319.39,109.19,319.39,109.21,319.39,109.23z"/>
			</g>
			<g>
				<path class="st23" d="M338.16,103.73c0.05,3.28,0.12,6.56,0.14,9.84c0.01,1.84-1.28,3.06-2.46,4.22
					c-0.38,0.37-1.36,0.35-2.02,0.23c-1.66-0.29-3.27-0.22-4.88,0.22c-0.11,0.03-0.23,0.06-0.35,0.07
					c-2.52,0.21-5.03,0.42-7.55,0.63c-0.09-0.21-0.14-0.45-0.28-0.62c-0.9-1.14-1.33-2.32-1.07-3.84c0.19-1.11,0.12-2.34-0.16-3.44
					c-0.52-2.04-0.12-4,0.23-5.96c0.16-0.87,0.65-1.73,1.17-2.47c0.55-0.77,1.36-1.26,2.44-1.02c2.95,0.66,5.94,0.78,8.93,0.5
					C334.51,101.9,336.51,102.15,338.16,103.73z"/>
				<path class="st24" d="M325.11,118.8c2.55-0.15,5.1-0.29,7.65-0.47c4.36-0.31,4.13,0.53,3.78,3.99c-0.18,1.76-0.22,3.6,0.09,5.31
					c0.41,2.27-1.47,4.31-3.39,4.43c-0.71,0.04-1.41,0.41-2.13,0.49c-0.98,0.11-2.06,0.35-2.95,0.06c-1.7-0.56-3.36-0.79-5.13-0.48
					c-1.74,0.3-2.36-0.27-2.49-2.14c-0.17-2.48-0.3-4.97-0.42-7.45c-0.03-0.57,0.04-1.15,0.15-1.71c0.33-1.78,1.3-2.54,3.02-2.41
					c0.61,0.05,1.21,0.12,1.82,0.19C325.1,118.67,325.1,118.74,325.11,118.8z"/>
				<path class="st20" d="M336.62,92.38c-0.17,1.95-0.28,3.91-0.53,5.85c-0.21,1.61-2,3.02-3.6,3.1c-1.36,0.07-2.71,0.28-4.08,0.37
					c-2.31,0.14-4.63,0.21-6.94,0.35c-1.03,0.06-1.52-0.49-1.83-1.36c-0.7-1.98-0.38-4-0.33-6.02c0.05-1.65,0.13-3.31,0-4.95
					c-0.11-1.41,0.17-2.26,1.56-2.52c2.02-0.38,4.03-0.96,6.16-0.4c1.14,0.3,2.33,0.21,3.5-0.28c1.33-0.56,2.76-0.65,4.17-0.25
					c1.25,0.36,1.74,1.02,1.76,2.34c0.03,1.25,0.01,2.51,0.01,3.76C336.52,92.37,336.57,92.37,336.62,92.38z"/>
				<path class="st7" d="M325.35,68.24c3.59-0.19,7.2-0.11,10.74-0.93c1.37-0.32,2.14,0.22,2.89,1.37c1.11,1.69,1.27,3.4,0.86,5.38
					c-0.45,2.15-0.6,4.38-0.74,6.58c-0.13,2.08-0.77,3.02-2.73,3.66c-1.15,0.37-2.27,0.87-3.43,1.19c-0.56,0.16-1.19,0.08-1.79,0.08
					c-1.2,0.01-2.41-0.01-3.61,0c-2.28,0.02-4.56,0.15-6.83,0.04c-1.27-0.06-2.16-1.8-2.01-3.39c0.11-1.21,0.15-2.43,0.25-3.64
					c0.21-2.53,0.3-5.09,0.68-7.59c0.35-2.29,1.08-2.75,3.39-2.75C323.79,68.24,324.57,68.24,325.35,68.24z"/>
				<path class="st20" d="M337.73,139c-0.19,2.4-0.32,4.82-0.61,7.21c-0.1,0.82-0.46,1.72-0.99,2.34c-0.4,0.47-1.34,0.9-1.9,0.77
					c-4.11-1.03-8.29-0.63-12.44-0.7c-2.33-0.03-2.73-0.46-2.82-2.86c-0.07-1.87-0.34-3.74-0.34-5.61c0-1.73,0.05-3.52,0.46-5.18
					c0.21-0.82,1.22-1.86,2.01-2.01c1.8-0.34,3.6-0.75,5.56-0.29c2.14,0.51,4.4,0.25,6.58-0.34c2.77-0.74,4.27,0.4,4.35,3.23
					c0.03,1.14,0.01,2.29,0.01,3.43C337.64,138.99,337.68,138.99,337.73,139z"/>
			</g>
		</g>
	</g>
</g>
</svg>
