<?xml version="1.0" encoding="utf-8"?>
<!-- Generator: Adobe Illustrator 24.3.0, SVG Export Plug-In . SVG Version: 6.00 Build 0)  -->
<svg version="1.1" xmlns="http://www.w3.org/2000/svg" xmlns:xlink="http://www.w3.org/1999/xlink" x="0px" y="0px"
	 viewBox="0 0 391.81 371.25" style="enable-background:new 0 0 391.81 371.25;" xml:space="preserve">
<style type="text/css">
	.st0{fill:#132CAD;}
	.st1{opacity:0.2;fill:#FFFFFF;}
	.st2{opacity:0.44;fill:#FFFFFF;}
	.st3{opacity:0.3;fill:#FFFFFF;}
	.st4{fill:#FFFFFF;}
	.st5{fill:#193081;}
	.st6{clip-path:url(#SVGID_2_);}
	.st7{fill:#FFC500;}
	.st8{clip-path:url(#SVGID_6_);}
	.st9{clip-path:url(#SVGID_10_);}
	.st10{fill:#A72112;}
	.st11{clip-path:url(#SVGID_16_);}
	.st12{clip-path:url(#SVGID_20_);}
	.st13{clip-path:url(#SVGID_24_);}
	.st14{fill:#EAE1F0;}
	.st15{clip-path:url(#SVGID_28_);}
	.st16{fill:#D9CDC8;}
	.st17{clip-path:url(#SVGID_32_);}
	.st18{clip-path:url(#SVGID_40_);}
	.st19{clip-path:url(#SVGID_44_);}
	.st20{fill:#C81A00;}
	.st21{clip-path:url(#SVGID_58_);}
	.st22{fill:#BE996D;}
	.st23{fill:#389655;}
	.st24{fill:#1B60AC;}
	.st25{fill:#F9F9FA;}
	.st26{fill:#0C2A8B;}
	.st27{opacity:0.3;}
	.st28{clip-path:url(#SVGID_62_);}
	.st29{clip-path:url(#SVGID_66_);}
	.st30{fill:#E1D7C1;}
	.st31{fill:none;}
	.st32{clip-path:url(#SVGID_70_);}
	.st33{fill:#103C9D;}
</style>
<g id="DSC_x5F_5908_xA0_Immagine_1_">
	<path class="st1" d="M123.53,158.35c-9.19,1.14-14.38-7.32-6.12-13.23c4.46-2.43,9.8-0.77,14.62-1.96
		c5.08-1.18,10.32-0.89,15.4-2.02c11-1.02,21.66-3.65,32.64-4.4c0.24-0.03,0.74,0.01,0.37-0.52c1.16-0.87,3.21-0.3,4.57-0.93
		c2.53-0.63,5.67-2.12,8.03-0.42c0.42,0.33,1,0.62,1.46,0.2c4.49-5.11,1.59-13.43,3.08-19.77c1.55-11.43,3.15-22.75,5.39-34.08
		c0.47-9.12,2.92-17.74,4.73-26.69c0.43-6.93,5.58-24.33,11.53-9.66c3.3,13.28,6.27,26.74,9.11,40.13c2.66,8.42,5.33,17,6.92,25.74
		c2.88,9.39,5.69,18.87,6.87,28.69c2.25,6.48,11.57,4.28,16.96,5.68c11.03,2.29,22.29,3.29,33.38,4.9
		c8.04,0.95,15.99,2.32,24.12,2.08c5.45,0.1,15.79-1.33,14,7.2c-0.83,3.46-5.52,6.07-8.91,6.3c-5.01-0.95-10.03-1.47-14.95,0.38
		c-7.54,3.69-15.3,6.73-23.6,8.24c-4.69,1.38-8.36,5.47-13.28,6.44c-6.38,1.02-12.08,4.14-18.08,6.37
		c-3.6,1.91-8.05,1.92-11.16,4.67c-1.14,1.14-2.46,2.1-3.97,2.71c-4.15,1.57-6.09,5.56-6.76,9.71c0.58,7.35-4.12,13.27-5.3,20.31
		c-1.72,9.79-5.15,18.67-9.03,27.72c-1.27,2.09-0.49,4.56-1.09,6.8c-0.57,2.52-2.27,4.79-2.22,7.45c1.04,4.13-1.96,6.56-4.67,9.13
		c-3.89,4.47-9.57,0.89-10.34-4.16c0.34-3.75,1.02-7.31,0.45-11.09c0.97-3.86-0.82-7.35-1.01-11.13c0.28-4.48,0.55-9.01,1.7-13.37
		c1.99-12.83,0.05-25.74,1.66-38.68c-0.23-3.79,1.88-15.7-0.44-17.87c-10.56-1.41-19.74-7.5-30.49-7.8
		c-10.11-1.77-20.21-4.23-29.97-7.44C134.13,162.16,128.85,157.71,123.53,158.35z M176.35,161.44c9.99,5.63,33.2,2.62,35.37,16.83
		c0.61,7.74,2.44,15.09,0.93,22.85c-0.11,4.93,2.58,9.32,1.83,14.33c-0.43,2.23,1.86,2.69,2.91,0.95c0.68-3.22,0.85-6.38,2.41-9.35
		c1.29-5.85,3.34-11.62,3.61-17.63c0.52-4.1,7.94-4.71,11.21-6.37c7.8-1.62,15.38-3.65,22.43-7.51c6.59-2.17,12.93-4.69,19.45-7.08
		c1.85-1.54,16.98-3.48,13.87-5.54c-3.19-2.48-6.26-4.74-10.5-3.43c-6.1,0.99-11.98-1.78-18.11-1.48c-3.86,0.72-6.84-2.16-10.39-2.2
		c-4.5,0.39-12.75-1.23-12.68-0.76c-5.54-3.03-8.11-24.09-10.05-30.89c-3.89-17.39-8.86-34.58-13.26-51.81
		c-2.6-5.65-0.34,9.73-1.05,10.97c0.01,10.2-1.58,20.18-4.38,29.96c-0.75,6.86-0.93,13.94-3.76,20.33
		c-2.78,4.12,1.88,9.96-1.88,13.36c-3.21,5.17-10.18,2.96-15.1,2.2c-7.19-0.98-14.29,1.56-21.49,1.5c-5.71,0.39-29.97,3.2-10.95,6.5
		C163.28,158.86,170.4,158.27,176.35,161.44z"/>
	<path class="st2" d="M327.84,156.49c-3.55-4.72-15.72-0.6-21.2-1.78c-4.1,0.43-7.95-0.32-11.71-2.02
		c-4.81,0.29-9.25-0.86-13.82-2.34c-7.6-0.65-15.23-1.53-22.73-3.15c-5.69-1.83-14.11,0.48-17.5-5.71
		c-2.26-12.82-6.71-25.18-8.82-38c-3.21-11.36-7.03-22.71-8.38-34.5c-1.14-7.78-3.94-15.17-5.35-22.89
		c-0.85-5.49-6.41-7.82-6.94-1.12c-1.85,9.83-3.41,19.61-6.45,29.19c-1.09,12.57-4.58,24.75-5.66,37.31
		c-0.83,5.73-1.25,11.52-1.63,17.29c0.04,3.98-0.3,9.98-5.92,8.28c-7.93,0.35-15.75,2.28-23.75,2.01
		c-7.81,2.07-15.89,2.68-23.78,4.27c-5.55,0.37-11.04,1.23-16.6,1.66c-4.79,0.22-11.77-0.06-11.79,6.44
		c-1.71,6.36,6.21,3.99,9.73,5.83c7.93,2.84,15.45,6.86,23.7,8.69c8.39,1.61,16.37,4.48,24.93,3.61c6.65-0.07,11.65,5.16,18.02,6.34
		c6.55,2.12,11.86-1.64,10.14,8.38c0.46,13.28-1.76,26.34-1.28,39.55c0.31,7.96-2.19,15.87-2.33,23.79
		c1.54,8.4,1.21,17.02,1.68,25.37c8.7,9.48,13.29-17.22,12.85-23.06c-0.04-0.5-0.08-0.96-0.11-1.38c0.37-2.19,0.8-4.38,1.59-6.45
		c0.41-1.07,0.92-2.1,1.42-3.13c0.54-1.1,1.07-2.19,1.61-3.29c0.31-0.62,0.61-1.25,0.96-1.84c0.29-0.48,0.61-0.95,0.83-1.47
		c0.37-0.85,0.47-1.79,0.6-2.7c0.53-3.67,1.69-7.22,2.89-10.74c0.77-1.21,1.88-2.26,2.22-3.7c2.65-6.28,1.37-13.34,3.92-19.61
		c0.48-3.04,4.1-2.33,6.3-3.1c3.82-1.08,5.97-5.23,10.28-5.43c7.41-2.79,14.56-6.02,22.05-8.65c0.99-0.35,2.09-0.48,3.09-0.8
		c1.03-0.33,2.05-0.72,3.02-1.19c1.99-0.97,3.6-2.46,5.46-3.64c1.06-0.68,2.22-1.19,3.28-1.88c0.83-0.54,1.63-1.14,2.53-1.54
		c0.8-0.36,1.67-0.56,2.49-0.86c1.09-0.39,2.1-0.96,3.18-1.36c2.31-0.87,4.83-0.99,7.22-1.64c0.69-0.19,1.36-0.41,2.04-0.65
		c1.06-0.24,2.11-0.55,3.15-0.86c0.02,0,0.03,0,0.05,0c4.12-0.38,7.86-2.74,12.1-1.65c2.44,0.27,4.92,2.03,7.36,1.52
		C325.74,163.11,329.53,159.79,327.84,156.49z M289.18,167.02c-2.07,0.6-4.08,1.39-6.01,2.35c-0.92,0.46-1.78,1.01-2.72,1.42
		c-0.98,0.44-1.99,0.84-3.03,1.1c-0.49,0.12-1.01,0.2-1.51,0.03c-0.45-0.15-0.85-0.09-1.33-0.02c-0.95,0.14-1.88,0.41-2.77,0.78
		c-0.88,0.36-1.72,0.81-2.55,1.27c-0.81,0.46-1.62,1.03-2.49,1.39c-2.68,1.11-5.81,0.85-8.54,1.94c-5.66,2.2-10.61,6.52-16.87,6.99
		c-5.22,0.44-11.22,0.87-12.42,7.05c-4.46,6.85-7.5,14.64-8.18,22.92c0.12,2.23-1.21,4.22-1.46,6.34c-0.33,1.15-0.46,2.36-0.59,3.55
		c-0.2,1.89-0.39,3.78-0.59,5.67c-0.11,1.02-0.21,2.04-0.54,3.01c-0.39,1.14-1.06,2.15-1.61,3.23c-0.76,1.5-1.25,3.12-1.96,4.65
		c-0.69,1.51-1.63,2.97-3.02,3.88c-0.6,0.22-1.35,0.27-2.35-0.95c-1.84-2.8,1.54-5.28,1.34-8.11c-0.66-4.72-0.37-9.24,0.61-13.88
		c0.25-5.34-0.28-10.59-1.14-15.76c-0.04-7.42-0.08-14.79-0.26-22.24c0.69-8.21,0.13-8.45-6.8-13.12
		c-6.54-3.31-14.17-3.67-21.18-5.38c-7.62-2.72-15.21-5.29-23.3-6.04c-26.79-5.85-0.05-8.84,10.33-9.53
		c9.65-1.27,19.35-2.81,29.03-0.69c9.43-0.15,6.5-6.5,7-12.82c1.52-5.58,3.46-10.94,3.53-16.83c0.5-8.86,3.95-17.13,4.95-25.93
		c0.98-8.32-0.08-16.46-1.4-24.68c0.74-7.41,5.51,1.35,5.82,4.34c2.32,9.67,4.27,19.43,7.08,29c0.75,3.44,1.05,7.01,2.59,10.23
		c0.94,1.27,1.82,2.41,1.98,4.07c2.74,10.36,4.6,20.88,7.57,31.13c1.88,11.19,14.04,6.17,22.07,8.7c6.32,0.51,12.59,0.79,18.77,2.19
		c4.54-0.12,8.88-2.31,13.21,0.17c2.07,1.19,4.83,0.29,7.07,0.27c0.98-0.01,2.08,0.09,2.8,0.84c0.93,0.97,1.04,2.81,0.43,3.95
		c-0.06,0.12-0.14,0.24-0.22,0.34c-0.14,0.09-0.28,0.17-0.42,0.25c-1.62,0.86-3.56,1.17-5.33,1.57
		C292.9,166.1,291.02,166.49,289.18,167.02z"/>
	<g>
		<path class="st4" d="M230.3,105.41c-0.15-0.67-0.24-1.37-0.48-2.01c-0.48-1.34-0.72-2.71-0.79-4.13
			c-0.03-0.66-0.16-1.32-0.34-1.96c-0.48-1.67-1.01-3.33-1.52-4.99c-0.25-0.81-0.36-1.69-0.77-2.4c-0.8-1.37-1.09-2.85-1.35-4.37
			c-0.3-1.78-0.38-3.63-1.48-5.19c-0.13-0.18-0.22-0.42-0.25-0.64c-0.25-1.74-0.53-3.49-0.71-5.24c-0.1-0.96,0.05-1.96-0.08-2.91
			c-0.33-2.33-0.75-4.64-1.15-6.96c-0.09-0.5-0.2-1-0.3-1.5c-0.31-1.53-0.57-3.07-0.96-4.58c-0.84-3.24-1.87-6.44-2.59-9.71
			c-0.36-1.65-1.25-2.94-2.09-4.29c-0.15-0.25-0.67-0.52-0.87-0.44c-0.69,0.3-1.47,0.61-1.93,1.16c-1.04,1.24-1.44,2.8-1.66,4.37
			c-0.19,1.37-0.31,2.74-0.44,4.12c-0.17,1.84-0.08,3.68,0.15,5.51c0.12,0.95,0.54,1.76,1.39,2.37c1.01,0.73,1.92,1.6,2.85,2.43
			c0.18,0.16,0.32,0.41,0.42,0.64c0.84,1.92,1.47,3.91,2.36,5.82c0.76,1.63,1.1,3.45,1.62,5.18c0.1,0.33,0.18,0.66,0.58,0.72
			c0.61,0.09,0.75,0.52,0.83,1.04c0.2,1.44,0.4,2.89,0.64,4.33c0.3,1.81,0.55,3.63,1.28,5.35c0.33,0.78,0.36,1.68,0.53,2.53
			c-0.07,0.01-0.14,0.02-0.22,0.03c0.06,0.63,0.06,1.27,0.18,1.89c0.17,0.85,0.41,1.69,0.64,2.53c0.17,0.62,0.26,1.27,0.55,1.83
			c0.86,1.64,1.5,3.36,1.94,5.15c0.34,1.38,0.8,2.72,0.84,4.19c0.05,1.61,0.5,3.18,1.36,4.59c0.4,0.65,0.78,0.73,1.35,0.23
			c0.15-0.13,0.29-0.3,0.37-0.48c0.44-0.94,0.75-1.9,0.36-2.96C230.42,106.28,230.4,105.83,230.3,105.41z"/>
		<path class="st4" d="M281.37,153.3c-0.25-0.04-0.47-0.19-0.71-0.28c-1.71-0.7-3.41-0.9-5.05,0.2c-0.45,0.3-0.89,0.28-1.38,0.13
			c-1.15-0.35-2.31-0.65-3.47-0.99c-0.37-0.11-0.71-0.27-1.07-0.4c-0.62-0.22-1.22-0.52-1.86-0.63c-0.83-0.15-1.68-0.11-2.52-0.23
			c-0.7-0.1-1.4-0.27-2.07-0.49c-1.36-0.46-2.67-1.04-4.04-1.44c-1.27-0.37-2.61-0.52-3.9-0.85c-1.47-0.37-2.94-0.34-4.41-0.06
			c-0.71,0.13-1.36,0.05-2.03-0.19c-0.7-0.25-1.41-0.47-2.12-0.68c-1.98-0.6-3.96-1.2-5.95-1.77c-0.38-0.11-0.81-0.14-1.2-0.07
			c-1.42,0.25-1.77,0.99-1.2,2.32c0.3,0.7,0.54,1.44,0.82,2.15c0.11,0.28,0.24,0.56,0.39,0.82c0.72,1.2,1.98,1.64,3.21,1.91
			c1.29,0.29,2.64,0.34,3.96,0.36c1.04,0.02,2.09-0.29,3.13-0.25c1.94,0.09,3.85,0.47,5.75,0.92c1.3,0.3,2.68,0.48,4,0.42
			c1.72-0.08,3.41-0.3,5.08,0.31c1.16,0.43,2.36,0.31,3.57,0.23c2.25-0.15,4.51-0.35,6.61,0.79c0.45,0.24,0.92,0.47,1.4,0.63
			c0.67,0.23,1.36,0.4,2.04,0.59c1.6-0.08,2.98-0.64,4.31-1.41c0.24-0.14,0.46-0.32,0.25-0.61
			C282.48,154.16,282.19,153.45,281.37,153.3z"/>
		<path class="st4" d="M207.52,237.5c1.32-4.2-0.36-8.6,0.7-12.85c1.39-7.38-0.68-14.78-0.83-22.12c0.08-7.51,1.2-15.48,0.12-22.82
			c-8.2-9.57-9.43-11.23-22.59-12.43c-3.56,1.36-1.36,2-5.81-0.07c-2.75-1.47-7.83-0.36-9.65-2.77c-0.58-1.67-2.09-1.4-3.45-1.79
			c-4.6-0.35-9.1-1.19-13.54-2.47c-4.44-0.8-8.9-1.76-11.88-5.47c-3.14-7.62,7.11-3.76,11.02-5.57c9.67-2.01,19.72-2.75,29.57-3.87
			c3.22-0.05,6.5-0.5,9.69-0.01c5.5,2.37,15.68,2.87,11.86-5.99c-1.9-0.85-0.8-3.02-0.05-4.27c4.21-7.38,3.14-16.19,3.78-24.34
			c1.36-5.02,3.21-9.97,4.29-15.11c0.99-5.62,0.86-11.53,0.08-17.17c-0.64-5.37-3.85-10.72-3.92-1.25
			c-1.74,9.83-4.34,19.97-4.82,30.19c-2.26,9.12-2.91,18.59-2.6,27.99c0.43,6.87-14.13,4.31-18.12,5.89
			c-4.28,1.42-8.91,0.06-13.23,0.73c-5.59,2.43-11.6,2.55-17.54,3.65c-3.49,0.07-6.14,2.69-9.55,2.91
			c-6.27,1.61-12.6-1.13-18.84,0.66c-0.32,0.06-0.79,0.38-0.84,0.65c-0.43,2.23-0.76,2.5,1.66,2.86c3.94,1.39,6.8,4.99,11.22,5.46
			c6.68,0.67,12.02,5.52,18.74,6.09c7.43,1.93,14.97,3.01,22.57,4.21c1.81,0.21,3.44,0.93,4.93,1.95c3.36,1.53,7.36,2.5,10.75,3.96
			c3.01,1.29,6.32,0.76,9.47,1.26c3.61,0.04,3.73,3.95,2.61,6.54c-1.01,3.29,0.53,6.58,0.11,9.9c-0.67,3.1,1.09,6.14,0.01,9.12
			c-0.46,0.99-0.58,2.16-0.72,3.27c-1.14,8.32-0.28,16.71-1,25.07c-0.44,8.53-3.4,16.91-0.39,25.35c1.22,5.39-0.29,10.84,0.24,16.19
			c4.92,7.69,9.63-10.51,9.71-14.07C213.12,243.79,203.87,248.49,207.52,237.5z"/>
		<path class="st4" d="M325.79,158.07c-0.62-0.72-1.24-1.44-2.31-1.48c-0.41-0.01-0.81-0.1-1.25-0.16c-0.15,0-0.33-0.02-0.5,0
			c-1.65,0.23-3.16,0.8-4.54,1.73c-0.31,0.21-0.36,0.46-0.1,0.69c0.5,0.44,0.57,0.96,0.51,1.59c-0.06,0.6,0.17,1.11,0.82,1.31
			c0.92,0.29,1.83,0.71,2.77,0.85c1.63,0.24,3.07-0.3,4.27-1.44c0.14-0.13,0.23-0.42,0.19-0.6c-0.13-0.51-0.03-0.96,0.18-1.41
			C326.01,158.79,326.07,158.41,325.79,158.07z"/>
	</g>
</g>
</svg>
