<?xml version="1.0" encoding="utf-8"?>
<!-- Generator: Adobe Illustrator 24.3.0, SVG Export Plug-In . SVG Version: 6.00 Build 0)  -->
<svg version="1.1" xmlns="http://www.w3.org/2000/svg" xmlns:xlink="http://www.w3.org/1999/xlink" x="0px" y="0px"
	 viewBox="0 0 391.81 371.25" style="enable-background:new 0 0 391.81 371.25;" xml:space="preserve">
<style type="text/css">
	.st0{fill:#132CAD;}
	.st1{opacity:0.2;fill:#FFFFFF;}
	.st2{opacity:0.44;fill:#FFFFFF;}
	.st3{opacity:0.3;fill:#FFFFFF;}
	.st4{fill:#FFFFFF;}
	.st5{fill:#193081;}
	.st6{clip-path:url(#SVGID_2_);}
	.st7{fill:#FFC500;}
	.st8{clip-path:url(#SVGID_6_);}
	.st9{clip-path:url(#SVGID_10_);}
	.st10{fill:#A72112;}
	.st11{clip-path:url(#SVGID_16_);}
	.st12{clip-path:url(#SVGID_20_);}
	.st13{clip-path:url(#SVGID_24_);}
	.st14{fill:#EAE1F0;}
	.st15{clip-path:url(#SVGID_28_);}
	.st16{fill:#D9CDC8;}
	.st17{clip-path:url(#SVGID_32_);}
	.st18{clip-path:url(#SVGID_40_);}
	.st19{clip-path:url(#SVGID_44_);}
	.st20{fill:#C81A00;}
	.st21{clip-path:url(#SVGID_58_);}
	.st22{fill:#BE996D;}
	.st23{fill:#389655;}
	.st24{fill:#1B60AC;}
	.st25{fill:#F9F9FA;}
	.st26{fill:#0C2A8B;}
	.st27{opacity:0.3;}
	.st28{clip-path:url(#SVGID_62_);}
	.st29{clip-path:url(#SVGID_66_);}
	.st30{fill:#E1D7C1;}
	.st31{fill:none;}
	.st32{clip-path:url(#SVGID_70_);}
	.st33{fill:#103C9D;}
</style>
<g id="DSC_x5F_5908_xA0_Immagine_1_">
	<g>
		<path class="st3" d="M347.85,146.75c-0.95-16.67-0.35-33.51,0-50.19c0.98-13.85-3.15-8.48-14.78-9.23
			c-1.5,0.03-3.01,0.06-4.49-0.2c-7.26-2.16-3.18,6.69-3.83,10.5c-0.26,13.28,0.8,26.54,0.8,39.83c0.7,3.48-2.15,14.1,3.1,13.75
			c4.22-0.29,8.45,0.38,12.66-0.01C345.31,151.24,348.06,151.96,347.85,146.75z"/>
		<path class="st3" d="M242.09,200.12c-0.29-4,0.07-8.03-0.8-11.97c-0.23-2.21-3.34-2.17-5.16-2.23c-2.34,0.04-4.68-0.23-7.02,0.16
			c-0.43,0.07-0.9-0.05-1.35-0.08c-1.66-0.16-3.35,0.2-5,0.04c-1.77-0.28-3.5,0.22-5.27-0.13c-4.07,0.2-8.14,0.49-12.21,0.21
			c-3.9,0.01-7.85-0.18-11.7,0.48c-1.6,0.36-3.23,0.41-4.85,0.55c-3.71,0.08-7.42,0.32-11.14,0.44c-1.42,0.23-2.82,0.37-4.25,0.03
			c-1.73-0.35-2.73,1.35-2.69,2.91c-0.81,1.89-0.53,3.97-0.4,5.96c0.18,4.42-0.57,8.82-0.71,13.23c-0.05,0.95,0.19,1.96,1.04,2.49
			c0.19,0.71,0.82,0.81,1.36,0.8c2.83,0.07,5.64,0.1,8.45-0.39c4.05-0.18,8.11-0.26,12.16-0.22c1.83,0.06,3.63,0.41,5.48,0.24
			c5.88-0.25,11.78-0.12,17.6-1.06c1.5,0.05,3.01-0.22,4.49,0.17c0.68,0.04,1.38-0.17,2.07-0.18c2.65,0.18,5.22-0.56,7.86-0.44
			c0.83-0.05,1.66-0.13,2.49-0.2c1.45-0.08,2.9-0.67,4.34-0.38c1.01,0.26,2.01,0.14,3.02,0.19c1.29,0.02,2.18-1.31,2.14-2.48
			C242.23,205.55,242.37,202.84,242.09,200.12z"/>
		<path class="st3" d="M273.61,216.19c-0.33-3.21,2.21-3.38,4.71-3.33c1.71-0.03,3.42-0.03,5.14,0c3.95,0.07,7.91,0.08,11.81,0.59
			c10.63-1.06,21.33-1.08,32-1.48c4.69-0.71,9.56-0.52,14.26,0.04c2.04,1.64,1.44,4.74,1.4,7.14c-0.27,4.56-0.49,9.13-0.35,13.7
			c0.05,2.04-2.55,2.64-4.24,2.39c-2.23-0.39-4.5,0.36-6.74,0.31c-13,1.63-26.15,0.39-39.21,1.24c-5.2,0.18-10.38,1.18-15.62,0.84
			c-3.77-0.24-2.99-4.7-3.32-7.38c-0.28-1.47,0.2-3.13,0.13-4.57C273.1,222.51,274.42,219.34,273.61,216.19z"/>
		<path class="st4" d="M341.88,219.65c-0.1-2.37,0.91-7-2.59-6.97c-5.67-0.41-11.34,0-16.96,0.51c-5.5-0.22-11,0.38-16.53,0.48
			c-3.38-0.27-6.61,0.65-9.97,0.64c-5.21-0.47-10.44-0.5-15.68-0.59c-2.42-0.16-5.96-0.36-5.37,3.22c0.28,2.48,0.07,4.98-0.01,7.47
			c-0.15,14.39-1.56,12.52,12.69,11.72c9.35-0.9,18.75-0.7,28.13-0.84c7.98,0.73,15.95-1.21,23.95-1.03
			c2.66-0.11,2.12-3.47,2.11-5.31C341.4,225.84,341.6,222.75,341.88,219.65z"/>
		<path class="st3" d="M296.76,108.52c-1.46,7.36-1.36,15.14-1.12,22.74c0.09,7.91-0.86,15.93-0.8,23.82
			c-0.64,20.53,1.83,12.74-10.66,14.83c-8.62-2.01-12.63,5.27-11.23-7.9c0.76-4.83,0.11-9.68,0.02-14.53
			c-0.38-6.91,0.16-13.86,0-20.8c0.22-2.65,0.72-5.3,0.81-7.96c0-2.3-1.54-4.44-0.84-6.73c1.67-4.47,0.48-9.13,0.49-13.8
			c0.46-4.25-0.38-8.76,0.58-12.92c0.68-1.76,2.46-1.14,3.9-0.94c3.52,0.09,6.99,0.66,10.52,0.64c3.83,0.46,10.86-1.34,9.15,4.93
			C297.09,96.11,296.91,102.34,296.76,108.52z"/>
		<g>
			<path class="st3" d="M217.34,159.9c-0.62,1.43-1.19,2.29-2.98,1.96c-2.65,0.07-5.27,0.34-7.92-0.03c-6.57-0.2-8.82,1.8-8.88-6.44
				c-0.34-4.42,0.45-8.85,0.24-13.21c0.03-4.88-0.34-9.82,0.59-14.62c0.08-7.88-0.4-15.8,0.02-23.72c0.85-3.93-2.15-22.3,3.02-22.14
				c3.72-0.08,7.42,0.08,11.08,0.63c2.07,0.48,5.69-0.85,6.73,1.45c1.1,5.07,0.76,10.37,0.44,15.51c-0.93,7.3,0.19,14.64-1.06,21.66
				C217.06,133.85,217.85,146.97,217.34,159.9z"/>
			<path class="st4" d="M219.08,86.83c0.1-4.16-4.93-2.8-7.62-3.35c-2.62-0.47-5.25-0.31-7.88-0.43c-1.62,0-3.64-0.82-3.94,1.52
				c-0.5,3.49-0.28,7.01-0.32,10.64c-0.82,0.44,0.17,4.25-0.12,5.52c0.14,5.49-0.38,10.96-0.43,16.42c0.09,0.62,0.15,1.78,0.93,1.9
				c0.06,1.31-0.76,11.71-1.13,12.5c0.76,7.06-1.56,20.49,0.09,27.41c0.11,3.26,5.56,1.6,7.7,1.74c1.94-0.08,10.01,1.27,10.08-1.15
				c0.99-8.49,0.25-17.16,0.78-25.72c-0.7-8.31,1.64-16.44,1.52-24.73c0.05-0.55-0.23-0.81-0.82-0.79c0.1-1.39-0.21-2.92,0.19-4.25
				c0.43-0.63,0.46-1.3,0.35-2C218.99,96.99,219.27,91.91,219.08,86.83z M217.9,89.96c0,0.11,0,0.21-0.01,0.32v-0.6
				C217.9,89.77,217.9,89.86,217.9,89.96z M202.96,84.11c-0.06,0-0.12,0-0.19,0.01C202.84,84.11,202.9,84.11,202.96,84.11z
				 M199.22,116.52c0.04,0.35,0.11,0.71,0.21,1.06C199.32,117.22,199.26,116.87,199.22,116.52z M199.35,111.71
				c0.09-0.95,0.2-1.9,0.23-2.84C199.55,109.82,199.45,110.76,199.35,111.71z M216.95,122.25c0.16-0.53,0.26-1.06,0.31-1.61
				C217.21,121.19,217.11,121.72,216.95,122.25z"/>
			<path class="st20" d="M198.27,145.55c-0.48-2.54,0.03-5.06,0.05-7.66c0.42-3.22-1.97-7.24,3.24-6.49
				c3.98,0.4,8.41-1.95,12.2,0.07c1.17,2.47,0.17,5.32,0.56,7.95c-0.01,2.27,1.05,6.26-2.09,6.6c-5.17,1.73-7.23-0.73-11.27,0.11
				C199.98,146.64,199.24,145.68,198.27,145.55z"/>
			<path class="st23" d="M200,129.73c-1.69-3.86-0.22-7.88-0.31-11.86c1.77-2.7,11.6-0.96,14.78-0.5c2.72,0.51,1.74,3.52,1.7,5.47
				c-0.03,1.95,0,3.91,0.01,5.86c-1.71,4.08-6.62,1.36-9.9,1.33C204.15,129.79,201.91,130.9,200,129.73z"/>
			<path class="st7" d="M217.54,102.62c-4.08-2.29-9.11-1.02-14.1-1.51c-0.26-1.11,2.86-0.32,1.26-1.8
				c-1.45-1.19-2.33-2.65-2.22-4.65c-0.01-3.26-0.85-6.42,0.25-9.62c0.7-2.19,6.68-1.23,8.62-1.11c5.29,0.48,7.43-0.75,7.21,5.87
				c-0.09,2.41-0.38,4.83-0.43,7.25C218.06,99.61,217.1,99.94,217.54,102.62z"/>
			<path class="st20" d="M204.18,100.49c3.98,0.61,8.15-0.63,11.99,0.58c2.75-0.01,1.75,3.23,1.96,5.03
				c0.17,1.49-0.43,2.84-0.45,4.31c-0.33,1.85,0.57,5.19-2.01,5.52c-4.16,0.41-8.33,1.08-12.51,0.49c-2.73-0.35-2.01-3.91-1.72-5.42
				C201.76,108.23,200.36,99.85,204.18,100.49z"/>
			<path class="st7" d="M199.23,145.9c2.27,1.13,5.19,0.44,7.73,0.69c2.45-0.5,5.07,0.86,7.37-0.28c1.61,0.42,1.04,5.73,0.97,7.17
				c-0.06,1.7,0.41,3.3-0.5,4.83c-0.25,0.43-0.78,1.28-1.38,0.86c-0.82-0.56-1.65-0.35-2.4,0.07c-2.93,1.36-6.23,0.53-9.33,0.52
				C197.93,158.79,199.63,149.23,199.23,145.9z"/>
		</g>
		<path class="st4" d="M295.57,85.83c-6.27-0.43-12.61-0.6-18.87-1.12c-3.4-0.91-2.52,3.51-2.47,5.47
			c0.08,5.06-0.09,10.12,0.18,15.15c0.55,2.32,0.15,4.62-0.51,6.86c-0.61,2.55,0.28,5.22,0.81,7.72c-1.05,4.02-1.82,8.3-1.11,12.56
			c-0.31,7.31-0.01,14.68,0.09,22c1.58,2.67-3.36,17.56,2.1,14.74l-0.03,0.06c2.44-0.92,5.35-0.32,7.94-0.72
			c3.02-0.24,5.81-0.34,8.62,0.74c2.8-0.08,1.33-3.86,1.72-5.65c0.68-5.92-0.02-11.91,0.4-17.86c1.36-11.03,0.09-22.16,1.06-33.23
			c1.46-6.96,0.86-14.18,1.44-21.24C297,89.46,298.23,86.22,295.57,85.83z"/>
		<g>
			<path class="st3" d="M356.79,68.31c-0.42-2.8,0.89-5.96-0.34-8.71c0.05-1.97,0.18-6.84-2.16-7.52
				c-7.78-1.33-15.62-1.49-23.47-1.87c-8.54-0.76-17.18,0.01-25.77,0.03c-7.8,0.02-15.82-0.99-23.54-0.1
				c-3.54,3.06-0.28,14.53-1.89,19.64c-0.17,1.27-0.07,2.59-0.02,3.89c0.09,1.93,1.34,3.11,3.29,3.06
				c3.89,0.02,7.77,0.04,11.64,0.41c18.88,0.07,38.27-0.46,56.87,0.5c1.68-0.83,4.02,0.87,5.18-1.05
				C357.53,74,356.67,71.02,356.79,68.31z M355.91,59.09c-0.03-0.07,0.04-0.16,0.06-0.23C355.93,58.95,355.91,59.03,355.91,59.09z"
				/>
			<path class="st4" d="M356.45,60.84c0.01-0.24-0.12-0.37-0.39-0.35c-1.37-10.15-0.93-6.91-10.64-8.5
				c-11.48-0.7-22.97-1.21-34.49-0.99c-9.03,0.35-18-0.24-27.02-0.05c-4.42-0.84-2.17,5.93-2.74,8.35c-0.32,2.01,0.24,4-0.01,6.02
				c0.19,2.6-2.34,10.2,2.12,9.91c7.05-0.2,14.17,1.15,21.16,0.23c7.62-0.13,15.24,0.32,22.85,0.18c7.14,0.24,14.3-0.14,21.47,0.2
				c1.48,0.57,2.9,0.03,4.39,0.06c0.76,0.16,1.52,0.4,2.17-0.25c1.86-2.15,0.26-5.34,0.73-7.92
				C356.41,65.47,356.53,63.15,356.45,60.84z"/>
		</g>
		<g>
			<path class="st4" d="M346.49,142.79c-0.58-17.88,0.71-35.79,0.01-53.67c-1.09-2.67-5.29-0.02-9.46-0.59
				c-1.41-0.07-2.83-0.14-4.24-0.22c-1.93,0.46-7.61-2.01-7.35,0.41c-0.11,3.52,0.78,6.66,0.73,10.46
				c-0.86,2.02-0.05,5.02-0.32,7.36c0.92,10.32,0.53,21.64,0.97,32.25c0,2.38,0,4.77,0.01,7.15c-0.65,1.66,0.08,4.18,1.91,4.02
				c5.38,0.07,10.82-0.69,16.16,0.17C347.96,149.79,346.17,145.05,346.49,142.79z M326.76,127.03c0.1,0.01,0.18,0.04,0.23,0.11
				C326.94,127.08,326.86,127.04,326.76,127.03z"/>
		</g>
		<path class="st20" d="M318.15,214.53c3.62,0.13,6.66-1.1,5.84,4.04c-1.07,4.25-0.32,8.67-1.06,12.97
			c-0.13,2.06-2.83,0.98-4.19,1.22c-0.96-0.01-1.9-0.02-2.82,0.35c-1.23,0.31-2.6-0.12-3.86-0.12c-1.37-0.05-1.73-0.43-2.09-1.73
			c-0.92-4.94-0.23-10.02-0.43-15.02c0-1.13,0.29-1.43,1.4-1.48C313.29,214.73,315.94,214.4,318.15,214.53z"/>
		<path class="st23" d="M339.98,220.99c-0.11,1.37-0.25,2.75-0.31,4.12c0.11,2.34,1.13,6.74-2.44,6.85
			c-3.81-0.28-7.58,0.39-11.37,0.21c-3.02,0.49-1.17-4.71-1.49-6.48c-0.01-2.41,0.06-4.81-0.21-7.22c-0.22-1.99,0.77-2.82,2.7-2.78
			c3.66,0.07,7.39-0.49,11.01,0.12C340.53,216.24,339.64,219.3,339.98,220.99z"/>
		<path class="st24" d="M308.47,218.18c-0.31-1.44-0.7-1.8-2.16-1.88c-2.1-0.03-4.1-0.73-6.2-0.69c-1.4,0.1-1.56,0.21-2.89-0.32
			c-1.5,0.15-2.1,1.46-3.15,2.37c-0.05,3.38-0.03,6.75,0.22,10.11c1.16,0.01,0.51,2.3,0.87,3.12c0.31,3.26,7.3,1.33,9.66,1.63
			c4.48,0.4,3.67-3.83,3.53-6.92C308.06,223.13,309,220.64,308.47,218.18z"/>
		<path class="st7" d="M294.05,222.92c0.79-12.21-3.52-8.31-12.76-9.28c-6.14-0.62-4.24,4.26-4.46,8.38
			c0.02,3.24-0.53,6.84,0.36,9.96c1.35,1.84,3.68,2.21,5.79,2.55c2.4,0.09,9.16-0.22,10.31-2.45c0.44-0.69-0.12-1.88,0.68-2.34
			C294.44,227.48,294.09,225.2,294.05,222.92z"/>
		<g>
			<path class="st3" d="M251.53,105.33c-0.05-2.36,0.08-4.71,0.16-7.07c-0.55-0.11-0.34-0.55-0.38-0.89
				c0.03-1.78-0.31-3.53-0.41-5.3c-0.22-9.34,0.09-18.7,0.19-28.07c0.11-1.51-0.09-2.99-0.18-4.49c0.13-1.35,0.34-2.69,0.37-4.04
				c-0.1-4.31,0.46-8.84-0.67-13.02c-1.3-2.73-9.42-1.31-11.98-2.08c-0.94-0.26-1.9-0.28-2.8-0.14c-1.63,0.32-3.41-0.11-4.97,0.41
				c-1.28,0.62-1.68,1.84-1.57,3.19c-0.07,3.54,0.04,7.55-0.03,10.84c0.03,2.81-0.34,5.74-0.01,8.4c0.31,0.42,0.31,0.84,0.01,1.27
				c0.17,1.69-0.21,3.37-0.04,5.07c0.23,3.04,0.34,6.13,0.07,9.18c0.3,0.05,0.41,0.24,0.38,0.52c-0.13,1.51,0.31,2.93,0.59,4.39
				c0.34,1.86-0.66,3.66-0.6,5.52c0.01,0.11-0.12,0.23-0.18,0.34c-0.36,6.22-0.19,12.52,0,18.78c0.15,3.98,3.64,3.21,6.61,3.31
				c1.91,0.1,3.81,0.29,5.71,0.39c2.16,0.01,4.32,0,6.45,0.38c1.35,0.16,2.65-1.06,3.43-2.1
				C251.62,108.54,251.87,106.89,251.53,105.33z"/>
			<path class="st4" d="M250.9,105.85c0.05-5.75-0.75-11.42-0.66-17.15c-0.07-1.39-0.31-2.76-0.41-4.15
				c-0.09-1.07,0.31-2.12,0.04-3.21c-0.09-0.37,0.15-0.82,0.15-1.23c0.02-1.96,0.04-3.93-0.01-5.89c-0.01-0.56-0.02-3.79-0.01-3.9
				c0.16-1.55,0.36-3.11,0.43-4.67c0.08-1.81,0.08-3.62-0.36-5.41c-0.11-0.46-0.08-0.99,0.04-1.46c0.93-4.6,0.62-9.41,0.12-14.04
				c-0.74-0.42-0.17-2.05-1.39-1.9c-0.1-0.12-0.21-0.36-0.3-0.35c-1.35,0.25-2.33-0.81-3.64-0.68c-1.88-0.07-3.76-0.14-5.64-0.21
				c-0.94-0.17-1.83-0.3-2.78-0.07c-0.92,0.17-1.86,0.23-2.8,0.26c-2.36-0.46-3.3,0.02-3.38,2.58c0.09,3.98-0.27,7.94-0.43,11.92
				c-0.02,0.42-0.03,0.84-0.43,1.11c-0.03,0.34-0.05,0.68-0.08,1.02c0.03,0.77,0.07,1.54,0.1,2.32c0.7,0.6,0.5,1.69,0.61,2.52
				c0.04,6.41-0.07,12.78,0.86,19.14c0.22,2.24-0.37,4.46-0.46,6.63c-0.6,4.76-0.27,9.54-0.19,14.32c-0.09,9.2-0.63,6.24,10.34,7.21
				c2.37,0.28,4.79,0.08,7.16,0.36C251.36,111.7,251.22,108.41,250.9,105.85z"/>
		</g>
		<g>
			<path class="st4" d="M241.44,199.78c0-0.14-0.13-0.28-0.2-0.41c-0.03,0.05-0.01-0.26-0.01-0.38c-0.12-0.05-0.12-0.05,0,0
				c-0.07-2.56-0.13-5.12-0.21-7.67c0-0.11-0.13-0.21-0.2-0.31c0.03-1.65-0.11-3.65-2.62-3.6c-2.71-0.05-5.42-0.26-8.12-0.14
				c-2.95,0.09-5.9,0.25-8.83-0.02c-1.52,0.26-3.03,0.23-4.55,0.02c-1.57,0.14-3.19,0.17-4.78,0.16c-4.24,0.38-8.46-0.16-12.69,0.02
				c-2.77-0.05-5.48,0.58-8.24,0.77c-3.14,0.37-6.31,0.07-9.45,0.4c-2.63,0.25-5.25,0.48-7.89,0.39c-1.4,0.01-1.8,0.33-2.07,1.69
				c-0.29,1.87-0.98,3.57-0.78,5.46c0.01,0.25-0.07,0.45-0.36,0.51c0,1.83-0.01,3.67-0.01,5.5c0.24,0.54,0.28,1.08-0.04,1.61
				c-0.02,0.47-0.07,0.94-0.21,1.39c-0.06,1-0.01,1.99-0.02,2.99c-0.3,0.53-0.19,1.18-0.21,1.78c0.13,0.34,0.27,0.67,0.4,1.01
				c0.04,0.26,0.03,0.56,0.42,0.58c0.78,0.2,1.55,0.3,2.34,0.03c0.19-0.06,0.43-0.06,0.62-0.01c1.3,0.33,2.63,0.19,3.94,0.15
				c1.9-0.23,3.79-0.66,5.73-0.39c3.69-0.32,7.41-0.54,11.09-0.14c10.01,0.8,19.92-1.22,29.92-0.85c0.44,0,1.01,0.21,1.23-0.43
				c0.02-0.06,0.18-0.1,0.28-0.1c1.38-0.07,2.72-0.41,4.12-0.03c1.28-0.13,2.65-0.02,3.87-0.5c0.8-0.37,1.61-0.61,2.51-0.46
				c0.84,0.44,1.7,0.86,2.66,0.74c0.76-0.05,1.57-0.2,1.79-1.13c0.12-0.13,0.34-0.25,0.35-0.4c0.04-1.01-0.01-2.03,0.02-3.04
				c0.07-0.14,0.19-0.28,0.19-0.42C241.46,202.95,241.46,201.37,241.44,199.78z"/>
			<path class="st20" d="M205.11,197.34c0.04-0.1,0.13-0.2,0.12-0.29c-0.18-1.94,0.61-3.86,0.1-5.8c-0.02-0.07,0.2-0.28,0.24-0.26
				c1.13,0.48,2.16-0.12,3.21-0.34c1.66-0.34,3.34-0.48,5.02-0.42c1.54,0.05,3.08,0.12,4.61,0.25c1.11,0.09,1.53,0.58,1.73,1.66
				c0.66,2.9,0.92,5.86,0.47,8.82c0.13,1.74,0.34,3.58,0.4,5.35c0.09,1.29,0,1.48-1.26,1.74c-1.72,0.35-3.44,0.67-5.21,0.67
				c-1.44,0-2.88,0-4.31,0.01c-1.1-0.02-1.12,0.45-2.24-0.31c-0.43-0.26-0.78-0.54-0.84-1.17c-0.06-0.58-0.44-1.14-0.73-1.68
				c-0.24-0.45-0.63-0.42-1.04-0.23C204.7,202.73,205.21,200,205.11,197.34z"/>
			<path class="st23" d="M205.11,197.34c-0.02,2.13-0.07,4.26-0.05,6.39c0.44,2.05,0.3,1.55-0.48,3.43
				c-0.22,0.95-0.91,1.69-1.86,1.68c-1.94-0.01-3.88,0.12-5.84-0.14c-6.02-0.56-6.39,1.85-6.43-5.49c0.31-3.2,0.15-6.4,0.21-9.59
				c0.02-1.29,0.85-2.16,2.15-2.28c1.97-0.24,3.94-0.07,5.88-0.54c2.13-0.44,6.01-1.18,6.35,1.83
				C205.24,193.43,204.55,197.04,205.11,197.34z"/>
			<path class="st23" d="M239.52,197.04c-0.04-1.42-0.61-2.74-0.26-4.21c0.46-1.33-0.39-2.56-1.21-3.57
				c-0.27-0.64-0.84-0.83-1.4-0.93c-3.95-0.54-7.97-0.03-11.94-0.03c-0.89,0.03-1.67,0.45-2.08,1.24c-0.67,1.33-0.85,2.78-0.68,4.26
				c0.35,0.26,0.16,0.72,0.17,1.13c0.12,2.57-0.3,5.21,0.45,7.71c0.05,0.17,0.01,0.36,0.01,0.54c0.19,1.17,0.35,2.35,0.51,3.53
				c1.07,0.85,2.03,1.81,3.53,1.63c1.78-0.12,3.57-0.16,5.35-0.25c1.31-0.29,2.59-0.27,3.86,0.23c0.32,0.12,0.69,0.1,1.04,0.14
				c0.03,0.42-0.11,0.89,0.42,0.98c0.2-1.64,1.78-2.77,1.99-4.41C239.63,202.41,239.54,199.71,239.52,197.04z"/>
			<path class="st20" d="M173.37,200.33c0-2.17,0-4.35,0-6.52c-0.14-1.71,0.33-3.17,2.3-3.23c4.29,0.02,8.61-0.47,12.88,0.01
				c0.93,0.13,1.52,0.85,1.47,1.79c-0.25,2.18-0.4,4.38-0.45,6.58c-0.06,2.76,0.14,5.55-0.26,8.29c-0.18,1.26-0.78,1.97-2.44,2.15
				c-2.28-0.02-4.53,0.45-6.81,0.44C171.11,209.56,173.81,210.47,173.37,200.33C173.38,200.33,173.38,200.33,173.37,200.33z"/>
		</g>
		<path class="st3" d="M137.95,235.59c2.11,0.08,5.77-1.12,6.67,1.44c1.22,4.77,0.8,9.72,1.42,14.58c0.12,2.39,1.11,6.57-2.26,6.96
			c-5.37,0.21-10.74,0.4-16.1,0.46c-13.2,0.68-26.26-0.05-39.45-0.04c-3.69,0.21-7.39-0.27-11.05-0.17
			c-3.05-0.03-12.24,1.55-11.99-3c0.29-5.36-1.1-11.01,0.66-16.18c0.45-1.36,1.51-2.17,2.61-2.95c0.83,0.13,1.66,0.34,2.49,0.35
			c2.16-0.08,4.32-0.2,6.48-0.19c6.26-0.45,12.53-0.7,18.81-0.79C98.58,236.04,125.04,236.08,137.95,235.59z"/>
		<path class="st25" d="M145.02,253.31c-0.53-3.41-0.62-6.86-0.9-10.3c-0.12-2.04,0.44-5.75-2.26-6.2
			c-13.09,0.24-26.19,0.51-39.29,0.43c-8.48,0.69-17.02,0.27-25.52,0.97c-2.45,0.37-4.89,0.39-7.35,0.16
			c-2.27,0.12-3.01,3.19-3.16,5.03c0.46,2.71-1.44,13.67,1.56,14.03c5.67,0.37,11.34-0.27,17.02,0.16c3.78,0.31,7.58-0.3,11.34,0.02
			c11.9,0.35,23.73,0.34,35.66,0.01c3.6,0.14,7.38-0.46,11-0.59C145.1,257.19,145.3,254.73,145.02,253.31z M138.06,255.47
			c0.12-0.01,0.23-0.02,0.35-0.03C138.29,255.46,138.17,255.47,138.06,255.47z M117.21,255.42c0.17,0.02,0.35,0.04,0.53,0.04
			C117.56,255.46,117.39,255.44,117.21,255.42z M132.47,255.46c0.79-0.13,1.58-0.23,2.37-0.22
			C134.05,255.22,133.26,255.33,132.47,255.46z M71.03,239.59c0.78,0.03-0.27,0-0.54-0.28C70.67,239.4,70.85,239.5,71.03,239.59z
			 M129.61,253.59c-0.02,0-0.05,0-0.07,0C129.57,253.59,129.59,253.59,129.61,253.59z M114.33,254.04c-0.08,0-0.15,0.02-0.22,0.06
			C114.18,254.06,114.25,254.04,114.33,254.04z M112.31,256.38c0-0.03,0-0.05,0-0.08c0,0.15,0.01,0.33,0.02,0.44
			C112.32,256.64,112.32,256.52,112.31,256.38z M113.19,257.25c0.1,0,0.2,0.01,0.3,0.01C113.39,257.26,113.29,257.26,113.19,257.25z
			 M120.53,257.03c-1.61-0.01,0.14,0,0.83,0C121.09,257.03,120.81,257.03,120.53,257.03z M142.51,255.88c-0.06,0-0.11,0-0.17,0
			c0.16-0.01,0.34,0.01,0.49,0.01C142.73,255.89,142.63,255.89,142.51,255.88z M144.49,254.73c0.01-0.07,0.02-0.14,0.02-0.21
			C144.51,254.59,144.5,254.66,144.49,254.73z"/>
		<path class="st7" d="M99.52,248.98c-0.9-0.47-1.21,1.13-1.25,1.75c-0.23,0.99-0.47,4.19-1.64,4.17c-1.67,0.05-3.34,0.18-5.01,0.19
			c-1.88-0.33-6.47,0.34-7.09-1.75c-1.25-2.98-0.68-6.37-0.97-9.51c0.54-1.12,0.35-3.31,1.9-3.49c2.95-0.45,5.87-0.13,8.84-0.19
			c2.31-0.52,3.05,0.08,4.62,1.71c-0.1,0.5,0.14,0.68,0.61,0.62C99.46,244.63,99.94,246.87,99.52,248.98z"/>
		<path class="st7" d="M129.58,252.04c0.08-1.25-0.66-2.53,0.31-3.41c0.4-0.43,0.5-1.35,0.36-2c0.24-3.16,0.07-2.67,0.24-4.98
			c0.31-1.34,0.93-1.43,2.33-1.52c1.61-0.03,9.45-1.18,9.82,0.43c-0.2,1.25,0.5,2.17,0.84,3.27c0.14,1.84,0.16,3.68,0,5.52
			c-0.34,1.49,0.43,3.78-1.22,4.58c-1.22,0.52-2.42,1.09-3.8,0.97c-1.56-0.11-3.12-0.35-4.67-0.02c-1.79,0.42-2.64-0.02-3.29-1.7
			C130.16,252.68,130.06,251.7,129.58,252.04z"/>
		<path class="st20" d="M75.84,239.9c8.57-0.46,4.89,1.17,6.2,8.77c1.13,9.19-3.91,4.95-9.98,6.04c-1.21,0.07-2.42,0.24-2.5-1.34
			c-0.36-2.18-0.43-4.38-0.41-6.58C68.24,239.27,68.73,239.95,75.84,239.9z"/>
		<path class="st23" d="M113.09,256.31c-3.22,0.6-6.45-1.02-9.74-0.02c-1.56,0.33-2.63,0.16-3.05-2c-0.22-1.13-0.28-2.29-0.41-3.44
			c-0.04-0.36,0.09-0.78-0.42-0.92c-0.02-0.42-0.04-0.84-0.06-1.26c0.6-2.25-0.39-4.98,0.16-7.1c0.64-2.49,3.56-1.37,5.43-1.87
			c2.61-0.6,5.27-0.48,7.93-0.45c3.02,0.1,1.74,6.68,1.75,8.73C114.2,250.78,114.62,253.85,113.09,256.31z"/>
		<path class="st20" d="M120.23,239.08c2.23,0.78,8.42-1.09,8.6,1.69c0.37,3.09,0.21,6.2,0.67,9.29c-0.05,1.72,0.9,5.15-1.75,5.12
			c-2.74,0.07-5.47,0.16-8.21,0.25c-1.7,0.54-5.1,0.1-4.24-2.4c0.59-1.41,0.6-2.87,0.3-4.34c0.18-2.71-0.09-5.51,0.49-8.17
			C116.47,238.5,118.97,239.49,120.23,239.08z"/>
		<g>
			<path class="st3" d="M214.3,308.07c-2.25,0.28-4.48,0.2-6.74,0.39c-1.04,0.14-2.14-0.17-3.21-0.14c-1.14,0.03-2.27,0.23-3.4,0.34
				c-1.97,0.11-3.95,0.18-5.93,0.29c-0.91,0.26-1.9,0.34-2.58-0.45c-1.04-6.41,0-13.06-0.62-19.55c-0.17-1.74-0.25-3.46-0.06-5.19
				c-0.7-7.2,0.13-14.51-1.19-21.66c-0.07-5.62-0.71-10.95-0.85-16.37c0.19-3.91-0.67-8.11,0.81-11.82
				c0.75-1.87,5.88-1.64,7.71-1.93c4.53-0.17,9.06-0.39,13.6-0.44c1.11-0.17,2.45-0.83,3.27,0.3c0.42,0.52,0.37,1.75-0.19,2.07
				c-0.74,0.42-0.86,1.03-0.83,1.77c0.07,3.83,0.35,7.65,0.61,11.46c0.1,3.65-0.48,7.3-0.38,10.97c0.2,2.1,0.29,4.24,0.47,6.34
				c0.4,2.18,0.36,4.34,0.17,6.53c-0.03,1.99,0.03,3.97,0.16,5.96c0.08,4.08,0.04,8.16,0.42,12.23c-0.29,4.74-0.17,9.51-0.17,14.26
				c0.25,0.74,0.19,1.55,0.19,2.33C215.36,306.67,214.57,307.25,214.3,308.07z"/>
			<path class="st4" d="M214.15,304.14c-0.44-9.62-0.11-19.27-0.54-28.91c-0.13-1.55-0.04-3.13,0.1-4.7
				c0.17-3.21-0.39-6.46-0.71-9.65c-0.04-8.88,0.6-17.79-0.6-26.63c0.04-1.69-5.84-0.83-6.88-0.83c-1.27,0.07-2.53-0.01-3.81,0.17
				c-1.99,0.45-9.63-0.26-10.11,1.98c-0.64,4.88,0.03,9.9-0.08,14.83c0.65,6.36,0.38,12.79,1.29,19.13
				c0.18,2.27-0.15,4.58-0.07,6.85c0.15,2.4,0.51,4.78,0.38,7.19c0.15,7.43,0.29,14.86,0.18,22.27c0.43,2.44,2.4,1.34,3.98,1.1
				c0.79-0.1,1.54-0.38,2.4-0.16c0.73,0.18,1.55-0.01,2.33-0.06c1.72-0.18,3.43-0.33,5.14-0.09c1.76-0.03,3.52-0.11,5.28-0.19
				C213.62,306.46,214.17,305.2,214.15,304.14z M212.76,248.37c-0.01,0.37-0.02,0.73-0.03,1.1
				C212.74,249.1,212.75,248.74,212.76,248.37z M212.55,245.23c-0.02-0.15-0.04-0.3-0.05-0.45
				C212.51,244.92,212.53,245.07,212.55,245.23z M209.85,234.26c-0.01,0-0.03,0-0.04,0C209.83,234.26,209.84,234.26,209.85,234.26z
				 M205.1,234.24c0.31-0.01,0.63-0.01,0.94-0.01c-1.34-0.02-2.68,0.1-4.01,0.3C203.06,234.38,204.08,234.25,205.1,234.24z
				 M200.11,234.64c-0.37,0-0.73-0.02-1.1-0.02C199.37,234.61,199.74,234.63,200.11,234.64z M198.28,234.63
				c0.24-0.01,0.48-0.01,0.72-0.01c-0.71,0-1.42,0.04-2.13,0.11C197.35,234.68,197.81,234.65,198.28,234.63z M196.17,234.8
				c0.21-0.02,0.43-0.05,0.64-0.07C196.6,234.75,196.38,234.77,196.17,234.8z M197.07,255.67c-0.25,0-0.5,0.01-0.75,0.03
				C196.57,255.67,196.82,255.67,197.07,255.67z M194.91,290.25c-0.02,0.06-0.04,0.12-0.05,0.19c0.02-0.24,0.18-0.33,0.4-0.45l0,0
				C195.15,290.08,194.95,290.14,194.91,290.25z M193.99,235.08c0.24-0.03,0.48-0.07,0.71-0.1c-1.64,0.18-2.64,0.22-2.93,2.29
				C192.05,235.66,192.6,235.16,193.99,235.08z M193.7,285.95c0,0.08,0,0.15,0.01,0.23c-0.03-0.55,0-1.1,0-1.66
				C193.7,284.99,193.69,285.47,193.7,285.95z M193.87,288.38c-0.01,0.22-0.02,0.44-0.03,0.66c0.03-0.41,0.05-0.82,0.02-1.23
				C193.87,288,193.88,288.19,193.87,288.38z M191.93,249.89c-0.03-1.32-0.05-2.64-0.07-3.97c0.07,1.67-0.05,3.36,0.19,5.02
				C192,250.59,191.93,250.24,191.93,249.89z M192.52,262.03c-0.02-0.67-0.03-1.33-0.05-2c0.02,0.73,0.04,1.47,0.05,2.2
				C192.52,262.17,192.52,262.1,192.52,262.03z M192.91,266.18c0-0.16,0-0.32,0-0.47c0,0.33-0.01,0.66,0,0.99
				C192.91,266.53,192.91,266.35,192.91,266.18z M192.95,267.21c-0.01-0.08-0.02-0.17-0.02-0.26c0.06,0.78,0.19,1.56,0.27,2.34
				C193.12,268.6,193.02,267.9,192.95,267.21z M193.66,281.93c-0.02-0.36-0.06-0.72-0.1-1.07
				C193.61,281.21,193.64,281.57,193.66,281.93z M193.76,298.64c0.02,1.61-0.01,3.21,0,4.82
				C193.74,301.85,193.78,300.25,193.76,298.64z M193.77,304.93c0.01,0.27,0.03,0.53,0.07,0.79
				C193.79,305.46,193.78,305.2,193.77,304.93z M194.25,306.73c-0.05-0.04-0.1-0.09-0.14-0.14c0.15,0.2,0.34,0.28,0.61,0.27
				C194.53,306.87,194.38,306.83,194.25,306.73z M195.99,305.31c-0.13-0.27-0.24-0.55-0.32-0.83c0.11,0.47,0.52,1.12,0.56,1.54
				C196.21,305.83,196.13,305.61,195.99,305.31z M204.42,304.96c-0.19,0-0.38,0.01-0.57,0.01
				C204.04,304.96,204.23,304.96,204.42,304.96z M205,304.96L205,304.96c0.16,0,0.32-0.01,0.48-0.04
				C205.31,304.94,205.15,304.96,205,304.96z"/>
			<path class="st23" d="M212.88,299.98c-0.22-1.97-0.38-3.94-0.51-5.91c-0.19-2.01,0.26-5.23-2.53-5.45
				c-1.86-0.06-3.8,0.25-5.54-0.55c-0.85-0.34-1.58-0.36-2.47,0.02c-1.67,0.64-3.63,0.49-5.39,0.78c-1.5,0.29-1.65,0.51-1.92,2.04
				c-0.01,0.06-0.09,0.1-0.15,0.15c0.06,1.67,0.35,5.34,0.19,5.43c0.03,1.2-0.1,2.41,0.1,3.59c0.19,1.16-0.01,3.24,0.34,3.41
				c-0.16,2.46,2.03,2.42,3.88,2.49c1.25-0.72,2.65-0.82,4.05-0.89c1.98-0.11,3.96-0.16,5.95-0.26c1.51-0.07,3.21-0.25,4.07-1.66
				C213.42,302.26,212.86,300.98,212.88,299.98z"/>
			<path class="st7" d="M199.89,255.66c0.22-2.1-1.87-2.14-3.4-1.95c-1.15,0.37-2.03-0.07-1.98-1.4c0.07-4.77-0.78-9.45-0.71-14.2
				c-0.06-2.18,2.4-2.43,4.04-2.51c2.71-0.03,5.43-0.11,8.14-0.22c1.88-0.17,4.93-1.48,4.96,1.53c0.5,4.08-0.21,8.23,0.95,12.23
				c0.12,0.51,0.27,1.01,0.37,1.53c0.22,1.26-0.48,3.02-1.97,2.99c-1.21-0.06-2.42,0.01-3.63-0.03c-1.52-0.1-4.84-0.82-4.76,1.58
				C201.33,255.82,200.6,255.69,199.89,255.66z"/>
			<path class="st23" d="M212.19,262.94c-0.21,2.77,1.08,7.51-2.75,8.15c-1.55,0.16-3.08,0.51-4.63,0.69
				c-2.85,0.11-5.69,0.3-8.47,0.97c-1.02,0.11-1.09,0.04-1.47-0.97c-0.6-1.64-0.86-3.35-0.91-5.07c-0.09-2.87-0.04-5.74-0.02-8.61
				c0.01-1.49,0.57-2.13,2.05-2.04c2.08,0.16,4.01-0.65,6.05-0.61c0.84,0.02,1.74,0.23,2.52,0.02c1.29-0.34,2.46,0.06,3.69,0.17
				c1.52,0.21,3.35-0.79,3.69,1.4c0.38,1.94,0.17,3.94,0.22,5.91C212.17,262.94,212.18,262.94,212.19,262.94z"/>
			<path class="st20" d="M211.6,283.13c0.37,6.17-4.82,1.96-7.97,4.39c-1.27,0.89-2.4-0.94-5.13,0.04
				c-2.72,0.76-3.25-1.65-3.04-3.81c-0.01-2.08-0.3-4.13-0.64-6.18c-0.18-1.13-0.11-2.32-0.04-3.48c0.05-0.77,0.66-1.19,1.4-1.26
				c4.33-0.21,8.61-0.96,12.95-1.17c0.47,0.04,0.95-0.5,1.4,0.03c1.38,1.63,0.76,4.01,0.85,5.99
				C211.34,279.42,211.51,281.15,211.6,283.13z"/>
		</g>
		<g>
			<path class="st3" d="M258.47,285.39c-0.04,1.21-0.02,2.4,0.21,3.57c-0.05,2.61,0.2,5.19,0.2,7.77c0,0.63,0.37,4.45-0.82,5.62
				c-1.32,2.07-3.8,1.06-5.78,1.11c-3.92-0.07-7.81,0.11-11.7,0c-3.31-0.01-3.45-3.77-3.72-6.25c-0.38-5.13-0.07-10.29-0.43-15.42
				c0.3-2.83-0.13-5.66-0.43-8.49c-1.2-10.4,0.35-21.04-1.45-31.41c1.13-0.81,0.05-1.92,2.66-2.36c2.96-0.29,5.92-0.06,8.87-0.4
				c3.15-0.36,6.24-0.58,9.45-0.66c0.96,0.07,1.47,0.74,1.61,1.54c0.61,2.92,0.46,5.86,0.08,8.8c-0.06,3.32,0,6.65-0.04,9.97
				c-0.1,2.48,0.66,4.88,0.62,7.36C257.81,272.57,257.77,279,258.47,285.39z"/>
			<path class="st4" d="M258.24,299.94c-0.04-1.71-0.04-3.41-0.16-5.13c-0.28-4.81-0.16-9.64-0.49-14.45
				c-0.35-1.85-0.68-3.68-0.63-5.58c0.05-3.22,0.03-6.45-0.01-9.67c-0.19-1.93-0.51-3.86-0.57-5.8c-0.11-3.42-0.09-6.85,0.2-10.27
				c0.2-2.63,0.62-5.28,0.15-7.9c-0.28-1.67-1.15-2.42-2.62-2.18c-3.81,0.64-7.68,0.62-11.52,1c-1.93,0.27-6.44-0.75-7.01,1.71
				c-0.05,1.43-0.07,2.87,0,4.31c0.06,1.35,0.29,2.69,0.38,4.04c0.11,1.67,0,3.34,0.18,5.02c0.21,1.97,0.17,3.97,0.23,5.96
				c0.04,5.69,0.12,11.37,0.83,17.02c0.05,3.47,0.02,6.94,0.04,10.41c-0.19,1.08,0.29,0.6,0.22,1.36
				c-0.01,3.56-0.19,7.21,0.63,10.69c0.5,2.26,3.06,1.63,4.79,1.76c1.19,0.06,3.59,0.59,4.28-0.69l1.09-0.09
				c-0.04,0.04-0.07,0.09-0.09,0.14c0.34,0.53,0.9,0.62,1.49,0.61c1.02-0.01,2.05-0.13,3.04,0.06
				C254.79,302.48,258.47,303.08,258.24,299.94z M236.42,248.05c0.05,1.17,0.07,2.35,0.15,3.52
				C236.49,250.4,236.47,249.22,236.42,248.05z M236.81,261.72c-0.02,1.97-0.03,3.93,0.03,5.9
				C236.78,265.65,236.79,263.69,236.81,261.72z M237.98,246.87c0.11,0.37,0.1,0.73,0.09,1.09
				C238.08,247.6,238.09,247.24,237.98,246.87z M238.28,252.21c-0.02-1.01-0.09-2.02-0.15-3.03
				C238.19,250.19,238.26,251.2,238.28,252.21z M239.05,242.88c-0.54,0.41-0.99,0.95-0.95,1.72
				C238.06,243.83,238.51,243.29,239.05,242.88z M253.26,257.21c-0.1,0.1-0.23,0.18-0.37,0.24
				C253.03,257.39,253.16,257.32,253.26,257.21z M255.33,272.42L255.33,272.42c0.05,0.07,0.09,0.13,0.14,0.18
				C255.42,272.55,255.37,272.49,255.33,272.42z M239.21,288.95c-0.01-0.07-0.01-0.15-0.02-0.23L239.21,288.95z M255.79,250.99
				c-0.01,0.19-0.02,0.38-0.02,0.57C255.77,251.37,255.78,251.18,255.79,250.99z M254.62,252.47c0.01-0.09,0-0.19,0-0.28
				C254.63,252.28,254.63,252.38,254.62,252.47z M238.09,245.31c-0.06,0.38-0.23,0.81-0.21,1.16
				C237.86,246.13,238.03,245.7,238.09,245.31z M237.65,285.69c-0.01-2.71-0.02-5.41,0.03-8.12
				C237.63,280.28,237.65,282.99,237.65,285.69z"/>
			<path class="st20" d="M255.16,290.78c-0.17-2.55-0.55-5.05-3.61-5.16c-0.59,0.07-1.18,0.11-1.76,0.22
				c-0.59,0.11-10.2,0.1-8.95,0.12c-2.18-0.03-1.79,1.74-1.73,2.83c0.33,1.55,0.06,3.13,0.49,4.69c0.71,2.15-0.41,4.82,0.98,6.77
				c2.2,0.8,4.97-0.98,6.59,1.3c1.14,0.21,1.27-0.5,2.24-0.65c1.01-0.05,2.02-0.18,3.02-0.28c0.18-0.17,0.32-0.42,0.54-0.5
				C256.04,298.77,255.02,293.52,255.16,290.78z"/>
			<path class="st7" d="M255.24,267.32c-0.11-2.16-0.17-4.33-0.23-6.49c0.04-1.67-1.4-2.41-2.73-2.98
				c-1.96,0.06-3.89,0.45-5.83,0.64c-2.15,0.1-4.32-0.12-6.46,0.26c-1.81,3.13-1.58,6.88-0.9,10.3c0.62,2.96,3.59,2.12,5.78,1.84
				c1.14-0.14,2.28-0.26,3.42-0.43c1.18-0.18,1.7,0,2.27,0.89c0.73,0,1.46,0,2.19,0c0.14-0.25,0.25-0.54,0.43-0.75
				C254.03,269.58,255.42,268.85,255.24,267.32z"/>
			<g>
				<path class="st24" d="M254.72,282.01c-0.21-1.08-0.02-2.17-0.43-3.22c-0.41-1.18-0.42-2.38-0.2-3.63
					c0.13-0.72,0.46-1.5,0.07-2.26c-0.13-0.25-0.36-0.49-0.37-0.74c-0.38-1.72-3.93-0.92-5.17-0.73c-2.68,0.61-5.38,0.93-8.14,0.95
					c-2.2,0.02-1.32,2.86-1.44,4.29c0.24,3.61-0.02,10.04,0.8,10.37c0.41,0.16,2.14-0.04,3.12-0.03c2.21-0.28,3.76-0.18,6.27-0.41
					c0.59-0.05-0.03-0.66,0.56-0.77c3.06-0.36,0.89-0.07,2.33-1.12C253.21,284.14,254.99,283.57,254.72,282.01z"/>
				<path class="st24" d="M241.23,257.85c2.94,0.03,5.91-0.15,8.78-0.82c1.54-0.43,4.08,0.14,4.24-2.07
					c0.62-4.24-1.72-5.73,0.03-10.24c0.46-2.1-2-2.61-3.59-2.64c-2.79,0.17-5.21,0.01-7.94,0.53c-1.6,0.5-4.32-0.18-4.48,2.17
					c-0.15,3.18,0.12,6.36,0.44,9.52C238.84,255.89,239.13,258.04,241.23,257.85z"/>
			</g>
		</g>
		<g>
			<path class="st3" d="M187.44,103.23c-0.22-0.64-0.22-1.37-0.23-2.06c0.22-3.97,0.52-7.97,0.79-11.95
				c-0.18-3.03-3.54-2.68-5.71-2.99c-2.98-0.29-5.98-0.28-8.97-0.43c-2.99-0.37-2.23,3-1.51,5.77c0.18,3.01,0.25,7.69-0.97,8.58
				c0.03,4.05-0.24,8.11-0.04,12.13c0.14,3.2-0.64,6.42-0.26,9.59c-0.37,6.63,0.34,13.32,0.12,19.94c0.11,0.87,0.01,1.83,0.59,2.61
				c1.08,0.56,0.92,0.98,2.43,0.88c2.04-0.12,4.07,0.03,6.09,0.2c3.23-0.78,7.96,0.97,7.42-3.96c-0.08-1.01,0.1-11.37-0.49-20.4
				c1.37-3.38,0.53-7.04,1.1-10.52C187.73,108.15,188.1,105.65,187.44,103.23z"/>
			<path class="st4" d="M187.38,89.08c-0.22-2.6-3.88-1.95-5.72-2.2c-1.59,0.05-3.16-0.28-4.76-0.09c-1,0.11-2.05-0.19-3.08-0.32
				c-2.43-0.47-2.33,2.58-1.5,4.1c0.41-0.1,0.23,7.9,0.26,8.22c-0.91,0.75-0.64,2.12-0.75,3.18c0.22,3.03,0.24,6.07,0.21,9.11
				c-0.99,10.38,0.21,20.76-0.22,31.15c-0.03,2.22,2.63,1.16,4,1.24c2.64,0.24,5.28,0.15,7.92-0.03c1.06-0.1,2.68-0.13,2.77-1.46
				c0.14-0.94-0.27-1.74-0.37-2.81c-0.16-1.59-0.66-0.54-0.62-2.02c0.03-1.14,0.35-4.41,0.43-5.55c0.16-2.04,0.4-4.64,0.56-5.23
				c0.29-1.02-0.67-5.44-0.54-6.85c0.4-0.45,1-2.47,1-3.03c-0.05-5.31,0.45-10.6-0.21-15.87C186.55,96.69,187.53,92.92,187.38,89.08
				z"/>
			<path class="st23" d="M172.43,99.56c-0.01-1.85,0.16-3.7-0.16-5.55c-0.11-1.43,0.22-2.53-0.33-4.45c0.14,0.5,1.07-0.06,1.36-0.3
				c0.89-0.75,1.98-1.07,2.97-1.17c2.65-0.12,6.98-0.5,8.43,2.31c0.58,3.89,2.41,11.33-3.69,11.15c-1.37,0.21-5.14-0.63-5.72,0.65
				C173.9,101.64,173.42,100.62,172.43,99.56z"/>
			<path class="st23" d="M186.08,125.79c-1.87,2.96-5.31,3.59-8.69,3.44c-1.09,0.1-0.62-1.49-2.02-1.42
				c-1.53-0.08-2.07-0.73-2.11-2.32c-0.03-2.58-0.26-5.17-0.2-7.75c0.04-1.49,1.65-0.96,2.48-1.74c2.07-1.22,4.43-1.18,6.68-0.66
				c1.77-0.12,2.01,2.22,3.11,3.17c1.23,1.35,1.06,3.14,1.18,4.85C186.54,124.76,186.52,124.76,186.08,125.79z"/>
			<path class="st20" d="M185.95,129.7c0.19,1.74,0.6,3.39,0.24,5.17c-0.3,1.8,0.16,3.73-0.27,5.53c-0.32,1.18-1.07,1.74-2.17,1.52
				c-3-0.54-6,0.37-9.05,0.04c-2-0.33-0.95-5.12-1.25-6.7c-0.39-2.97-0.65-6.23,3.08-6.57C184.09,129.75,184.14,126.27,185.95,129.7
				z"/>
			<path class="st20" d="M172.99,107.56c0.25-1.59-0.78-4.25,1.25-4.85c1.19-0.38,2.38-0.88,3.7-0.44c1.68,0.48,4.24-1.84,5.61-0.84
				c3.02,2.03,1.85,4.25,1.87,7.33c0.36,1.97,0.36,3.73-1.73,4.7c-2.63,1.71-5.52,0.76-8.27,0
				C172.41,113.03,173.07,109.72,172.99,107.56z"/>
		</g>
		<path class="st23" d="M248.98,83.35c-0.03-0.93-0.5-2.48-0.79-3.24c-0.8-2.08-2.1-3.63-4.28-3.29c-3.87,0.51-7.91-0.99-11.61,0.14
			c-0.37,0.11-0.74,0.36-0.92,0.7c-0.53,0.99-0.35,1.68-0.09,2.91c0.58,2.82,0.59,3.75,1.06,5.54c0.08,0.3,0,3.95-0.02,4.43
			c-0.04,1.23,0.21,2.03,0.77,2.04c2.15-0.62,4.83-1.01,7.06-1.25c1.7,0,3.46-0.23,5.11-0.09c1.77-0.07,2.55-1.63,3.12-3.05
			C249.2,87.08,249.17,84.69,248.98,83.35z"/>
		<path class="st20" d="M249.09,58.42c-0.38-1.1-0.85-2.51-0.19-3.54c-0.03-2.67,0.07-5.35-0.08-8.01c0.03-0.95-0.11-1.86-0.53-2.72
			c-0.1-0.53-0.11-0.77-0.75-0.82c-4.35,0.51-8.75,0.12-13.12,0.01c-2.28-0.26-2.43,2.32-2.4,4.03c-0.09,3.04,0.32,6.05-0.03,9.08
			c-0.73,4.06,0.98,5.86,5,4.38c2.71-0.25,5.4-0.25,8.11-0.34c0.77,0.04,1.56-0.11,2.36,0.04
			C248.65,60.75,249.57,59.52,249.09,58.42z"/>
		<path class="st7" d="M248.81,70.46c-1.38-2.43,1.82-9.69-2.56-8.58c-1.29,0.49-2.62,0.22-3.94,0.09
			c-1.64,0.02-3.28-0.15-4.91,0.34c-0.71,0.21-1.47-0.46-1.68-1.29c-0.64,0.07-1.27,0.14-1.91,0.21c-1.6,2.97-1.84,6.3-1.84,9.65
			c-0.7,2.18,1.56,4.08,0.29,6.19c0.24,0.66,1.72,0.11,2.32,0.33c3.1,0.49,6.24,0.6,9.36,0.23c1.5-0.13,2.74-0.02,3.46,1.96
			c0.1,0.44,0.86,1.21,0.69,0.24C245.61,74.88,250.25,74.79,248.81,70.46z"/>
		<path class="st7" d="M249.64,92.49c-0.74-0.09-1-0.79-1.51-1.17c-0.45-0.33-0.73-0.78-0.67-1.35c-1.49,1.53-2.27,1.12-4.1,1.1
			c-1.65,0.3-3.31,0.02-4.94,0.37c-1.94,0.31-3.95,1.03-5.76,0.87c-0.34,2.84-1.3,5.61-0.92,8.5c0.55,2.3,0.27,4.8,1.35,6.97
			c0.07,0.18,0.27,0.36,0.45,0.42c1.68,0.62,3.35,1.24,5.15,1.39c0.11,0.02,0.17,0.26,0.26,0.4c1.31,0.07,2.62,0.14,3.94,0.21
			c0.31-1.18,4.05,0.28,5.2-2c0.74-1.24,1.64-2.65,1.19-4.15c-0.53-1.84-0.19-3.55,0.58-5.23
			C249.85,96.71,249.95,94.59,249.64,92.49z"/>
		<path class="st20" d="M283.01,66.33c1.03-3.01-1.88-14.29,2.38-13.75c4.44,0.25,11.57-2.02,13.63,3.48
			c-0.24,3.14-0.1,6.49-1.14,9.51c-0.54,1.12-0.38,2.39-0.19,3.57c0.26,1.63-0.23,2.6-1.84,3.1c-3.43,0.87-6.95-0.17-10.43,0.08
			C281.92,72.58,283.54,68.25,283.01,66.33z"/>
		<path class="st7" d="M326.41,58.42c0.45,0.1,0.41,0.45,0.48,0.79c0.86,1.76,1.09-1.84,0.96-2.57c-0.81-2.22,2.34-2.33,3.82-2.68
			c18.05-2.42,7.6,5.21,10.48,16.17c0.74,3.31-10.09,2.94-12.17,2.4c-2.3-1.03-1.41-5.16-2.2-7.31c-0.05-0.64-0.25-1.16-0.96-0.64
			C325.76,64.29,327.06,60,326.41,58.42z"/>
		<path class="st23" d="M310.8,72.74c-2.65,0.7-9.83,1.98-11.43-0.62c-0.88-5.37-1.22-10.72,0-16.06c1.46-3.61,6.85-1.87,9.93-2.03
			c3.28,0.66,1.99,5.44,2.94,7.87C312.35,65.49,311.37,69.23,310.8,72.74z"/>
		<path class="st20" d="M319.02,53.12c9.44-0.44,7.7,0.84,7.58,9.1c-0.14,2.72-0.33,5.44-0.03,8.13c0.34,2-2.11,1.16-3.21,1.44
			c-1.51,0.7-9.32,1.4-9.66-0.79c-2.21-5.4-2.08-0.53-2.05-8.56c-0.35-3.23-0.19-1.85,1.04-4.04
			C313.31,53.03,313.64,52.84,319.02,53.12z"/>
		<path class="st23" d="M354.94,56.2c-2.5-3.08-6.27-2.42-9.82-2.35c-3.89,0.21-3.44,4.18-3.11,6.93c0.73,3.31,0.34,6.72,0.91,10.06
			c0.66,3.12,5.21,1.67,7.54,1.97C357.84,73.01,355.16,61.19,354.94,56.2z"/>
		<path class="st23" d="M328.29,87.85c3.22-0.04,6.61,0.37,9.83,0.52c2.19,0.35,4.76-1.06,6.69-0.46c-1.93,2.14,0.35,1.95-0.04,4.93
			c-0.53,2.23,0.71,5.46-1.22,7.04c-0.05,0.48-0.59,0.42-0.9,0.2c-1.65,0.44-3.3,0.77-4.98,0.18c-2.11-0.05-4.25-0.01-6.37-0.02
			c-2.49,0.69-3.16-0.64-3.31-2.95C327.34,94.14,327.66,90.93,328.29,87.85z"/>
		<path class="st7" d="M329.14,115.33c1.87,0.11,1.54-0.48,2.62,0.94c2.42,0.54,5-0.09,7.47-0.03c3.42-0.64,7.37,0.15,6.43,4.91
			c-0.4,2.74-0.08,5.66-1.46,8.14c-0.25,1.81-1.09,1.56-2.56,1.36c-0.2-0.99-0.38-1.95-1.53-1.76c-1.99,0.37-1.3,1.17-3.4,0.27
			c-2.41-1.12-7.45,0.68-8.34-2.4C327.21,121.41,327.38,120.23,329.14,115.33z"/>
		<path class="st20" d="M344.78,132.85c-0.09-1.92-2.13-2.49-3.67-2.04c-3.76-0.28-7.6-0.11-11.33,0.49
			c-2.13,0.14-1.8,3.01-1.8,4.63c0.33,3.33-0.07,6.49,0.34,9.65c0.1,3.32,3.98,1.51,5.95,1.8c1.84,0.01,3.69,0.12,5.53,0.21
			c1.36-0.19,3.59,1.04,4.27-0.69c0.51-1.27,1.01-2.48,0.54-3.89C344.67,139.58,344.66,136.27,344.78,132.85z"/>
		<path class="st20" d="M338.53,115.66c-1.83-0.06-3.66-0.14-5.49-0.17c-1.98,0.25-4.55,0.77-4.73-2
			c0.09-2.54-2.29-13.74,2.31-12.35c3.53,0.82,7.25-0.89,10.87,0.12c1.02,0.65,3.13-0.14,3.32,1.38c-0.32,3.68-0.4,7.37-0.42,11.05
			C343.72,115.94,340.16,115.54,338.53,115.66z"/>
		<path class="st23" d="M293.25,162.42c-0.08-9.18,0.18-11.98-10.15-10.12c-6.67,0.79-8.3-1.37-8.37,6.67
			c0.16,1.37,0.3,11.21,2.12,9.94C282.95,168.19,295.81,172.51,293.25,162.42z"/>
		<path class="st7" d="M294.68,108.31c-2.3-2.98-6.28-2.15-9.64-1.85c-1.74,0.09-3.45-0.38-5.2-0.2c0.85-2.58-0.77-3.38-2.93-4.19
			c-2.03-1.08-1.51-2.75-1.35-4.48c0.57-2.99-1.61-9.01,1.98-10.29c3.8-0.28,7.43,0.64,11.22,0.46c1.99,0.03,3.68,1.28,5.72,1.16
			c2.68,0.58,0.64,10.09,1.13,12.66c0.44,2.81-3.35,2.14-2.27,4.08C293.86,106.53,294.91,107.2,294.68,108.31z"/>
		<path class="st23" d="M276.02,114.59c-1.04-10.99,0.99-7.97,10.05-8.37c2.79,0.02,8.32-1.32,8.71,2.65
			c0.18,1.97,0.71,4.07-0.75,5.75c-2.44,4.27-8.72,1.38-12.74,2.19C277.64,117.34,277.15,118.94,276.02,114.59z"/>
		<path class="st7" d="M293.22,135.64c-0.9-1.02-0.26-1.65-0.04-2.73c-2.16,2.53-1.62,1.84-4.87,1.71
			c-3.64,0.57-10.95-0.95-11.75-1.01c-3.05,3.56-1.4,8.01-1.3,12.16c0.1,2.19-0.19,5.72,2.91,5.65c3.14,0.07,6.29-0.18,9.41,0.18
			c3.14,0.74,5.19-1.42,6.12-4.22C293.51,143.48,295.57,139.13,293.22,135.64z"/>
		<path class="st20" d="M279.53,118.24c4.05,0.52,8.11-0.09,12.16,0.55c2.15-0.14,2.22,3.09,1.87,4.68
			c-0.7,2.83,1.4,11.22-2.47,11.35c-3.53-0.31-14.84,2.49-15.23-2.99C277.26,123.77,271.84,117.64,279.53,118.24z"/>
	</g>
</g>
</svg>
