<?xml version="1.0" encoding="utf-8"?>
<!-- Generator: Adobe Illustrator 24.3.0, SVG Export Plug-In . SVG Version: 6.00 Build 0)  -->
<svg version="1.1" xmlns="http://www.w3.org/2000/svg" xmlns:xlink="http://www.w3.org/1999/xlink" x="0px" y="0px"
	 viewBox="0 0 391.81 371.25" style="enable-background:new 0 0 391.81 371.25;" xml:space="preserve">
<style type="text/css">
	.st0{fill:#132CAD;}
	.st1{opacity:0.2;fill:#FFFFFF;}
	.st2{opacity:0.44;fill:#FFFFFF;}
	.st3{opacity:0.3;fill:#FFFFFF;}
	.st4{fill:#FFFFFF;}
	.st5{fill:#193081;}
	.st6{clip-path:url(#SVGID_2_);}
	.st7{fill:#FFC500;}
	.st8{clip-path:url(#SVGID_6_);}
	.st9{clip-path:url(#SVGID_10_);}
	.st10{fill:#A72112;}
	.st11{clip-path:url(#SVGID_16_);}
	.st12{clip-path:url(#SVGID_20_);}
	.st13{clip-path:url(#SVGID_24_);}
	.st14{fill:#EAE1F0;}
	.st15{clip-path:url(#SVGID_28_);}
	.st16{fill:#D9CDC8;}
	.st17{clip-path:url(#SVGID_32_);}
	.st18{clip-path:url(#SVGID_40_);}
	.st19{clip-path:url(#SVGID_44_);}
	.st20{fill:#C81A00;}
	.st21{clip-path:url(#SVGID_58_);}
	.st22{fill:#BE996D;}
	.st23{fill:#389655;}
	.st24{fill:#1B60AC;}
	.st25{fill:#F9F9FA;}
	.st26{fill:#0C2A8B;}
	.st27{opacity:0.3;}
	.st28{clip-path:url(#SVGID_62_);}
	.st29{clip-path:url(#SVGID_66_);}
	.st30{fill:#E1D7C1;}
	.st31{fill:none;}
	.st32{clip-path:url(#SVGID_70_);}
	.st33{fill:#103C9D;}
</style>
<g id="DSC_x5F_5908_xA0_Immagine_1_">
	<path class="st3" d="M318.91,191.25c-1.61-2.04-4.82-1.38-7.07-1.12c-2.45,0.47-5.08,0.37-7.62,0.58
		c-0.79-0.08-0.99,1.25-1.82,0.87c-1.53-0.63-2.91-1.74-4.59-2.04c-0.18-0.3-0.58,0.01-0.76-0.29c-3.59-0.3-7.18,1.55-10.84,0.74
		c-7.92-0.23-15.98,0-23.78-1.03c-6.98-0.88-14.54,0.75-21.43-1.02c-3.05-1.48-2.36-5.05-3.83-7.61c-1.15-5.12-2.3-10.4-4.92-15.01
		c-1.31-3.46-1.99-7.05-2.72-10.63c-0.89-4.19-1.8-8.39-2.21-12.68c-0.35-0.6-0.19-1.38-0.38-2.04c-0.27-3.03-1.77-5.8-2.11-8.83
		c-0.78-3.6-1.96-7.41-2.64-11.18c-0.16-2.85,0.11-5.78,0.73-8.61c-0.1-2.52-1.34-2.9-2.46-0.53c-1.01,2.36-1.02,5.14-2.31,7.43
		c-0.82,3.29-3.32,5.88-4.22,9.13c-0.83,2.78-1.26,5.64-2.04,8.41c-0.51,3.11-1.84,5.96-1.91,9.2c-1.48,4.14-1.62,8.59-2.79,12.73
		c-0.3,0.15,0,0.53-0.26,0.7c-1.57,4.4-2.99,8.91-3.86,13.61c-0.33,0.32,0.04,0.81-0.29,1.13c0.09,0.44-0.23,0.83-0.15,1.26
		c-0.28,1.13-0.72,2.26-0.89,3.45c-1.01,2.3-1.04,4.94-1.46,7.41c-1.08,4.59-0.52,9.66-7.16,7.95c-4.63-1.43-9.55,0.61-14.18,0.91
		c-3.49,0.29-7.01,1.13-10.49,1.28c-3.18,0.38-6.47,0.03-9.55,0.75c-4.69,0.81-9.78,0-14.32-1.02c-3.28-0.23-6.41-2.19-9.65-2.8
		c-2.57-1.11-9.07,1.71-5.07,4.39c0.65,0.42,1.68,0.32,2.16,0.96c0.56,0.62,1.48,0.73,2.15,1.23c6.38,3.66,12.93,7.03,18.83,11.49
		c6.1,4.26,12.56,7.98,19.13,11.48c1.16,0.42,2.48,1.05,3.53,1.76c1.01,0.11,1.77,1.1,2.82,1.18c0.25-0.04,0.31,0.39,0.61,0.29
		c4.91,2.14,9.62,4.73,14.49,6.9c15.13,6.85,12.11,2.56,10.95,18.55c-0.85,6.77,0.22,13.91,0.41,20.65
		c-0.18,4.98,0.6,10.07-0.22,15.12c-0.5,1.78,0.07,3.57-0.47,5.28c-0.47,3.8,0.34,7.43,0.88,11.13c-0.31,1.71-1.46,8.9,1.47,8.43
		c1.92-0.16,2.54-2.5,3.23-3.95c2.27-4.42,1.61-9.6,3.83-14c2.57-6.16,3.88-13.19,6.76-19.4c1.53-3.81,3.73-7.47,4.41-11.55
		c1.12-2.8,2.3-5.8,3.44-8.65c1.17-4.72,1.89-9.58,3.46-14.22c1.25-5.23,4.72-9.62,6.04-14.85c0.16-1.71,0.67-3.39,1.41-4.93
		c0.34-1.73,1.83-2.99,3.49-3.63c3.17-1.8,6.06-4.16,9.57-5.29c3.15-0.65,6.13-2.17,9.37-2.94c8.56-1.7,17.07-4.88,25.55-7.35
		c1.21-0.19,2.3-0.78,3.51-0.94c1.27-0.2,2.62-0.28,3.88-0.56c4.62-0.98,8.95-3,13.68-3.36c2.8-1.12,5.94-0.35,8.83-1.05
		C318.41,193.55,320.11,193.22,318.91,191.25z M258.66,198.24c-0.89,1.44-2.27,2.18-3.81,2.62c-6.36,1.47-12.4,4.34-18.7,6.49
		c-5.11,2.08-5.14,8.73-6.93,13.16c-1.71,7.11-4.01,14.18-6.83,20.91c-1.65,4.61-2.76,9.51-4.47,14.17
		c-0.56,2.07-0.79,4.32-1.55,6.27c-0.58,0.37-1.62,3.59-2.07,1.76c-0.77-3.06-0.6-6.25-0.83-9.36c-0.44-1.85,0.15-3.58,0.17-5.41
		c0.01-0.31-0.12-0.67,0.06-0.93c0.2-0.28-0.09-0.65,0.23-0.86c0-0.64,0.19-1.25,0.3-1.86c-0.01-0.2-0.1-0.44,0.12-0.61
		c0.09-3.33-0.47-6.61-0.45-9.95c0.33-5.35-5.4-5.76-9.34-6.77c-1.05-0.26-2.08-0.59-3.17-0.86c-12.65-4.6-24.37-11.16-36.02-17.9
		c-1.38-0.67-3.08-1.99-2.46-3.67c0.18-0.95,1.78-0.46,2.47-0.92c5.72-0.24,11.48-0.45,17.23-0.45c1.54,0.52,3.25-0.02,4.76,0.58
		c2.02,0.09,3.94,0.98,6.01,0.76c1.66-0.37,3.43-0.44,5.02,0.42c10.23,2.67,11.18-14.59,12.28-21.22c0.53-5.68,3.3-10.91,3.68-16.63
		c0.22-0.3,0.04-0.7,0.26-0.99c0.73-3.47,1.96-6.82,1.63-10.41c-1.07-5.08,2.28-12.94,4.58-3.71c0.02,1.83,0.9,3.45,1.32,5.19
		c0.6,1.55,0.71,3.14,1.44,4.63c0.24,2.42,1.11,4.88,1.94,7.2c0.31,2.88,1.51,5.61,1.78,8.45c-0.05,0.83,0.26,1.64,0.3,2.45
		c0.27,0.17,0.06,0.52,0.16,0.74c0.46,0.72,0.65,1.61,0.86,2.44c1.49,4.55,1.01,11.07,5.6,13.74c2.32,1.03,4.96,0.21,7.34-0.09
		C244.38,197.71,257.95,196.03,258.66,198.24z"/>
	<path class="st4" d="M299.85,194.22c-1.34-4.31-5.55-3.18-8.68-1.63c-2.04,1.04-4.17,0.4-6.31,0.32
		c-3.49-0.77-7.41,0.28-10.94-0.45c-2.16-0.74-4.13,0.95-6.26,0.32c-6.55-1.68-13.28-2.29-20.09-2.07
		c-0.55,0.09-0.99-0.36-1.51-0.03c-0.15,0.07-0.44,0.09-0.47-0.01c-0.94-0.69-2.74,0.01-3.91-0.5c-4.96-1.49-5.44-7.12-6.67-11.39
		c-0.75-3.27-1.5-6.65-2.9-9.68c-1.6-2.29-2.44-5.02-2.86-7.7c-0.81-2.83-1.28-5.9-2.03-8.79c-0.68-2.33-0.67-4.81-2.4-6.65
		c-0.08-4.08-1.32-5.75-3.39-9.11c-1.58-3.09-0.33-6.76-1.16-10.1c-0.51-1.67-2.72-0.43-3.49,0.43c-2.39,3.41-2.1,7.72-3.06,11.6
		c-0.94,2.19-1.28,4.47-1.57,6.85c-1.68,3.08-1.57,6.65-2.63,9.93c-0.8,5.64-3.07,11.09-4.24,16.69c-0.39,3.51-1.81,6.59-2.52,9.99
		c-0.9,4.18-0.72,8.87-3.1,12.6c-0.75,0.86-2.09,2.14-3.21,2.04c-0.37-0.18-0.7,0.4-1.07,0.04c-0.22-0.17-0.54,0.1-0.74-0.16
		c-2.32-0.9-4.83-1.18-7.35-1.06c-5.4,0.13-10.69,1.33-16.03,1.76c-3.15-0.03-6.75-0.02-10.03,0.15c-2.11,0.32-4.22,1.16-6.49,1.03
		c-2.35,0.05-4.53,0.2-6.9-0.12c-2.38-0.56-4.88-1.09-7.35-0.62c-0.2-0.03-0.32,0.28-0.08,0.36c0.52,0.22,0.77,0.66,0.97,1.13
		c0.15,0.45,0.65,0.67,1.03,0.85c0.95,0.25,0.83,1.48,1.72,1.78c2.76,1.82,5.37,3.72,8.42,5.03c1.22,0.26,1.29,1.83,2.52,2.02
		c2.86,1.64,5.27,3.88,8.15,5.49c3.49,1.7,6.57,3.98,10.11,5.59c3.6,2.04,7.42,3.24,10.97,5.09c2.33,1.39,4.73,2.77,7.35,3.55
		c2.26,0.71,4.09,2.62,6.38,3.21c6.41,1.52,10.27,2.04,9.13,9.8c-0.36,5.94-1.44,11.78-1.18,17.81c0.68,7.46,1.5,14.84,1.31,22.46
		c0.07,4.64-1.85,9.11-1.49,13.68c0.7,2,0.78,5.09,2.29,6.36c0.49-0.24,1.4,0.06,1.4-0.72c0.23-1.82,0.27-3.49,0.91-5.21
		c3.42-6.87,5.36-14.39,6.6-21.96c0.18-0.54,0.23-1.11,0.86-1.41c1.03-0.85,0.95-2.73,2.14-3.58c0.49-1.28,0.77-2.86,1.81-3.88
		c0.52-3.67,2.34-7.12,3.86-10.45c1.62-3.2,1.5-6.87,2.04-10.33c0.53-3.27,2.18-6.16,2.41-9.52c2.11-4.57,4.83-7.23,4.83-12.77
		c0.86-3.6,3.99-6.88,7.57-8.09c2.38-1.28,4.19-3.83,6.93-4.38c2.04-0.86,4.53-0.92,6.65-1.87c3.3-1.28,6.57-2.45,9.99-3.21
		c5.15-0.66,9.7-3.17,14.69-4.63c3.29-0.55,6.13-2.69,9.38-3.09C293.36,197.1,298.54,197.79,299.85,194.22z M266.14,198.51
		c-7.03,3.81-15.06,4.61-22.25,8.02c-3.58,1.37-8.04,2.05-9.87,5.9c-2.25,6.41-3.76,13.18-6.35,19.35
		c-1.84,6.91-5.06,13.54-6.8,20.46c-1.71,4.97-2.05,10.29-4.34,15.04c-0.51,0.45-1.13,0.85-1.53,1.4c-1.45,1.32-2.67-0.54-2.53-2.03
		c-0.85-2.93-0.32-5.8-0.44-8.91c-0.72-5.04,0.21-9.9,0.59-14.87c-1.27-9.08,2.54-10.99-8.1-13.06c-9.3-3.73-18.68-7.07-27.37-12.32
		c-5.18-2.35-9.8-5.68-14.85-8.34c-3.38-1.78-6.98-5.3-0.73-6.08c7.25-0.57,14.58-1.28,21.89-1.32c4.08-0.09,8.06,1.6,12.03,0.28
		c3.94,0.18,5.59,4.75,9.19-0.85c1.53-2.39,2.76-4.9,3.22-7.7c0.46-3.41,0.78-6.83,1.31-10.26c0.35-3.15,1.56-6.11,2.49-9.19
		c0.93-4.46,2.14-8.9,3.08-13.34c0.72-3.79-0.44-7.64,0.59-11.36c0.35-4.5,4.95-5.73,6.19-0.71c0.65,3.42,1.2,6.97,2.27,10.3
		c1.44,5.8,3.48,11.23,4.51,17.1c0.6,3.62,2.28,6.79,2.81,10.52c0.57,3.64,1.24,8.84,5.83,9.34c4.74-0.24,9.67,0.15,14.29-0.46
		C253.89,195.45,268.78,194.01,266.14,198.51z"/>
</g>
</svg>
